<?xml version="1.0" standalone="no"?>
<!DOCTYPE svg PUBLIC "-//W3C//DTD SVG 20010904//EN"
 "http://www.w3.org/TR/2001/REC-SVG-20010904/DTD/svg10.dtd">
<svg version="1.0" xmlns="http://www.w3.org/2000/svg"
 width="1015.000000pt" height="1015.000000pt" viewBox="0 0 1015.000000 1015.000000"
 preserveAspectRatio="xMidYMid meet">
<metadata>
Created by potrace 1.11, written by Peter Selinger 2001-2013
</metadata>
<g transform="translate(0.000000,1015.000000) scale(0.100000,-0.100000)"
fill="#000000" stroke="none">
<path d="M4734 10132 c3 -5 -1 -13 -10 -16 -8 -3 -13 -2 -10 2 2 4 -4 8 -14 8
-10 0 -16 -4 -14 -8 3 -4 0 -16 -6 -25 -11 -17 -11 -17 -6 0 4 12 2 17 -6 14
-7 -2 -12 -10 -10 -17 3 -11 0 -11 -12 0 -18 14 -22 25 -6 15 6 -3 10 -1 10 4
0 14 -17 14 -25 1 -5 -8 -11 -8 -20 0 -9 8 -15 8 -20 0 -4 -6 -1 -9 6 -8 6 2
14 -3 16 -10 4 -10 -1 -10 -21 -1 -14 7 -23 16 -19 22 4 6 1 7 -6 3 -7 -5 -10
-14 -8 -20 3 -7 -1 -13 -9 -13 -9 0 -13 7 -9 16 3 11 0 10 -10 -3 -11 -14 -15
-16 -15 -5 0 12 -2 12 -10 -1 -8 -13 -10 -12 -10 4 0 20 0 20 -15 0 -9 -12
-14 -14 -15 -6 0 7 -5 10 -10 7 -6 -4 -8 -10 -5 -15 3 -5 1 -12 -5 -15 -6 -4
-10 -3 -9 2 3 20 -2 25 -15 14 -11 -9 -16 -9 -22 0 -5 8 -3 9 6 4 9 -5 11 -4
6 3 -11 19 -49 -5 -42 -26 5 -14 4 -14 -8 1 -8 10 -20 19 -28 21 -7 1 -20 6
-27 11 -8 5 -4 -7 9 -26 13 -19 18 -29 10 -23 -8 6 -33 12 -54 13 -36 2 -38 1
-25 -16 12 -16 12 -17 -2 -6 -9 7 -19 10 -22 6 -10 -9 -9 11 1 23 4 5 -1 1
-10 -9 -11 -12 -18 -14 -18 -7 0 9 -3 10 -13 1 -9 -7 -17 -7 -24 0 -6 6 -18 6
-35 0 -14 -5 -29 -7 -34 -3 -4 4 -3 1 1 -7 6 -11 4 -13 -8 -8 -10 4 -18 -1
-22 -14 -7 -20 -27 -27 -23 -8 2 6 -7 13 -19 15 -13 2 -23 -1 -23 -7 0 -5 5
-7 10 -4 6 3 10 2 10 -4 0 -10 -55 -9 -66 2 -4 3 -15 2 -25 -3 -9 -6 -26 -7
-36 -3 -17 7 -17 6 0 -11 21 -21 21 -23 2 -23 -8 0 -15 5 -15 11 0 7 -3 7 -8
1 -7 -9 -19 -14 -49 -19 -7 -1 -20 -11 -28 -22 -9 -11 -13 -13 -10 -4 6 17
-41 44 -51 29 -3 -5 0 -8 6 -7 14 3 22 -29 10 -37 -5 -3 -12 0 -16 6 -5 8 -3
9 6 4 8 -5 11 -4 6 3 -4 6 -13 9 -21 6 -8 -4 -12 -10 -9 -15 3 -5 0 -9 -5 -9
-6 0 -11 4 -11 8 0 5 -7 9 -15 9 -12 0 -12 -3 -2 -15 10 -13 9 -14 -9 -4 -12
6 -26 7 -34 2 -9 -5 -20 -5 -27 2 -10 8 -12 7 -8 -4 8 -21 -55 -45 -67 -26 -6
10 -8 10 -8 1 0 -7 -10 -13 -22 -13 -12 0 -18 -3 -15 -7 4 -3 2 -12 -4 -19
-13 -15 -42 -7 -32 10 3 6 -7 0 -23 -14 -17 -15 -23 -18 -14 -6 14 18 14 19
-7 8 -14 -8 -24 -9 -28 -2 -3 5 -12 10 -18 10 -7 0 -6 -4 3 -10 13 -8 13 -11
1 -22 -10 -10 -12 -10 -7 0 4 6 3 12 -2 12 -5 0 -13 -10 -19 -22 -8 -19 -10
-20 -16 -4 -4 9 -3 15 1 12 5 -3 9 1 9 9 0 11 -4 12 -14 4 -7 -6 -11 -15 -8
-19 3 -5 1 -11 -5 -15 -5 -3 -10 -2 -10 4 0 5 -9 9 -19 8 -11 0 -17 -5 -15 -9
3 -5 10 -5 16 -2 7 4 8 2 4 -4 -5 -9 -13 -9 -26 -2 -16 8 -18 8 -14 -5 4 -8
11 -15 17 -15 6 0 7 -3 4 -6 -4 -4 -18 1 -32 10 -28 19 -33 15 -9 -8 14 -15
14 -16 -3 -13 -10 1 -23 6 -30 10 -6 4 -14 3 -18 -3 -4 -6 -10 -8 -15 -5 -5 3
-11 1 -15 -5 -4 -6 -11 -7 -17 -4 -6 4 -6 -1 1 -14 8 -15 8 -23 -1 -28 -6 -4
-8 -3 -4 4 3 6 2 13 -4 17 -5 3 -10 0 -10 -7 0 -11 -2 -10 -9 0 -7 11 -9 11
-14 -2 -4 -9 -12 -16 -19 -15 -10 0 -10 2 0 6 6 2 12 9 12 14 0 5 -9 4 -19 -3
-16 -10 -18 -15 -8 -27 10 -12 8 -13 -12 -6 -16 5 -21 4 -17 -3 4 -7 -1 -9
-14 -7 -11 2 -20 -2 -20 -8 0 -7 -4 -6 -10 3 -7 11 -10 11 -10 2 0 -8 -5 -10
-12 -6 -10 6 -10 4 0 -8 11 -14 9 -16 -17 -14 -24 2 -28 -1 -19 -11 6 -8 8
-16 4 -20 -3 -3 -6 -2 -6 4 0 5 -12 15 -27 22 -22 10 -25 10 -15 -2 7 -8 9
-17 5 -20 -9 -10 -25 -9 -19 1 3 5 -1 9 -9 9 -15 0 -16 -18 0 -29 6 -5 3 -8
-7 -8 -9 0 -18 -3 -21 -7 -2 -5 -2 -3 -1 4 2 7 -2 15 -8 19 -6 4 -8 3 -5 -3 7
-11 -20 -28 -36 -24 -5 1 -5 -4 -1 -10 5 -9 2 -10 -11 -5 -16 6 -16 4 -4 -11
8 -9 9 -14 3 -10 -6 4 -19 -2 -29 -13 -10 -11 -22 -20 -28 -20 -5 0 1 8 14 18
15 13 19 21 10 26 -7 5 -10 2 -9 -6 2 -7 -6 -13 -17 -13 -13 0 -19 -6 -17 -17
3 -20 -14 -33 -24 -17 -5 8 -3 9 6 4 9 -6 11 -4 5 5 -6 10 -14 7 -31 -13 -13
-15 -33 -27 -46 -27 -19 0 -20 -2 -8 -11 12 -8 10 -10 -11 -6 -16 2 -26 -1
-26 -9 0 -7 5 -10 10 -7 6 3 7 1 3 -5 -4 -7 -15 -8 -29 -3 -19 7 -23 5 -24
-10 -1 -11 2 -17 7 -14 5 3 11 2 13 -2 3 -5 -8 -9 -25 -10 -23 0 -27 2 -17 9
11 8 10 8 -4 4 -10 -3 -21 -6 -23 -6 -3 0 -2 -5 2 -12 5 -8 0 -9 -15 -5 -18 4
-20 3 -11 -8 10 -11 8 -13 -9 -10 -11 2 -20 -1 -18 -7 1 -6 -4 -13 -11 -15 -8
-3 -10 1 -6 14 6 16 5 16 -9 -2 -8 -10 -13 -25 -10 -32 3 -7 0 -13 -6 -13 -6
0 -11 6 -12 13 -1 6 -5 1 -9 -13 -6 -18 -8 -20 -9 -7 -1 10 -5 16 -10 12 -6
-3 -8 -14 -6 -24 3 -16 -1 -18 -26 -14 -17 2 -29 0 -29 -7 0 -6 6 -8 13 -5 6
4 3 -1 -8 -9 -11 -9 -26 -14 -33 -11 -8 3 -16 -3 -19 -15 -3 -11 -10 -20 -15
-20 -5 0 -6 6 -2 13 4 7 3 9 -2 4 -5 -5 -9 -14 -9 -20 0 -5 -6 -12 -14 -15 -8
-3 -11 0 -7 7 4 6 5 11 1 11 -3 0 -10 -12 -15 -26 -6 -14 -14 -23 -19 -20 -13
8 -42 -4 -36 -14 5 -8 -33 -26 -47 -22 -4 1 -5 -4 -2 -12 3 -8 0 -17 -7 -22
-8 -5 -10 -3 -4 7 8 12 6 12 -8 0 -9 -7 -14 -18 -10 -25 4 -6 -2 -4 -12 4 -11
9 -16 10 -11 3 6 -12 -5 -18 -26 -14 -5 0 -8 -6 -8 -14 0 -15 -9 -18 -40 -16
-10 0 -11 -1 -2 -5 18 -8 15 -27 -4 -20 -14 5 -15 4 -5 -8 8 -9 8 -16 2 -20
-5 -4 -12 -2 -16 4 -3 5 -12 10 -18 10 -7 0 -6 -4 3 -10 14 -9 13 -11 -9 -14
-5 0 -13 -5 -18 -10 -4 -5 -3 -6 4 -2 6 3 14 2 17 -3 4 -5 -5 -8 -19 -7 -13 2
-22 -1 -19 -6 3 -5 -2 -8 -12 -6 -11 2 -19 -3 -19 -12 0 -8 -8 -14 -17 -14
-11 1 -14 -4 -11 -14 5 -11 2 -13 -8 -7 -11 6 -12 5 -1 -6 6 -7 12 -17 12 -23
0 -5 -8 1 -19 13 -16 18 -20 19 -25 6 -3 -9 -2 -13 4 -10 5 3 8 -3 7 -14 0
-11 -6 -17 -12 -13 -14 9 -35 11 -34 4 3 -19 -2 -32 -12 -32 -5 0 -7 6 -3 13
5 8 4 9 -4 2 -5 -5 -12 -19 -14 -30 -2 -14 -11 -20 -30 -19 -18 1 -25 -3 -20
-10 14 -23 9 -32 -19 -30 -16 1 -26 -2 -23 -7 3 -5 9 -7 14 -4 5 3 12 0 16 -6
5 -8 3 -9 -6 -4 -10 6 -12 4 -6 -10 5 -15 4 -16 -9 -5 -11 9 -15 9 -15 1 0 -7
-5 -9 -12 -5 -8 5 -7 0 2 -11 14 -17 14 -18 -7 -6 -27 14 -29 9 -7 -14 13 -13
14 -16 3 -15 -28 4 -49 0 -49 -10 0 -5 8 -7 18 -4 13 5 14 4 3 -4 -7 -5 -18
-16 -23 -23 -7 -10 -8 -9 -4 6 6 19 5 18 -13 -2 -10 -12 -22 -19 -27 -15 -5 4
-3 0 4 -9 10 -14 9 -16 -12 -14 -19 2 -23 -1 -19 -13 5 -11 3 -13 -7 -7 -9 5
-11 4 -6 -3 4 -7 1 -12 -9 -12 -9 0 -13 -4 -10 -10 3 -5 1 -10 -5 -10 -6 0 -8
-5 -4 -12 5 -7 2 -9 -9 -5 -9 3 -21 -1 -29 -11 -12 -15 -11 -16 7 -3 11 8 5 0
-12 -16 -33 -31 -43 -49 -20 -38 6 4 3 -1 -8 -10 -11 -9 -19 -20 -18 -25 2 -5
-4 -7 -13 -3 -9 3 -21 -3 -30 -16 -9 -12 -20 -18 -26 -15 -6 4 -5 -2 1 -15 9
-16 9 -21 0 -19 -6 2 -14 -3 -17 -11 -3 -9 0 -11 9 -6 11 6 11 5 3 -4 -6 -7
-20 -14 -30 -15 -10 -2 -19 -9 -20 -17 -2 -35 -5 -38 -21 -32 -16 6 -16 5 -4
-10 12 -16 12 -17 -5 -10 -16 6 -17 5 -6 -9 11 -14 11 -16 0 -14 -7 1 -19 6
-27 10 -9 6 -12 5 -7 -2 3 -6 2 -13 -4 -17 -7 -4 -7 -12 0 -26 6 -10 8 -20 5
-20 -20 -5 -31 -3 -37 6 -4 5 -6 -5 -3 -23 3 -27 1 -31 -10 -22 -14 11 -27 0
-31 -28 -4 -21 -25 -42 -38 -36 -6 3 -2 -2 8 -10 17 -14 18 -16 3 -16 -17 0
-21 -10 -18 -40 2 -13 0 -13 -8 -1 -5 8 -8 19 -7 25 2 6 1 8 -1 3 -3 -4 -9 -5
-14 -1 -5 3 -5 -6 1 -20 7 -19 6 -25 -3 -23 -7 1 -11 -4 -10 -10 2 -7 -4 -13
-13 -13 -8 0 -12 -4 -9 -10 3 -5 1 -10 -5 -10 -6 0 -8 -5 -4 -12 5 -7 2 -9 -9
-5 -12 4 -14 2 -10 -11 6 -14 4 -15 -9 -4 -13 10 -18 10 -24 1 -4 -7 -3 -9 3
-6 6 4 13 0 17 -8 3 -9 0 -15 -9 -15 -8 0 -15 -5 -15 -11 0 -5 4 -8 9 -4 11 6
6 -34 -5 -44 -4 -3 -5 1 -1 11 4 11 -1 18 -14 21 -17 4 -18 3 -8 -9 8 -10 8
-14 1 -14 -6 0 -9 -6 -6 -14 3 -8 0 -17 -6 -21 -9 -6 -9 -10 1 -17 10 -7 8 -8
-7 -3 -16 4 -23 0 -27 -15 -5 -18 -3 -19 11 -8 13 11 13 9 -1 -13 -10 -14 -14
-29 -10 -34 5 -4 4 -6 -2 -3 -18 10 -55 -10 -49 -27 4 -10 0 -15 -12 -15 -16
0 -16 -1 2 -14 19 -15 19 -15 -1 -12 -30 5 -38 -4 -18 -21 10 -8 12 -12 6 -8
-7 3 -13 1 -13 -5 0 -6 -5 -8 -12 -4 -10 6 -10 4 0 -8 11 -13 8 -19 -15 -38
-15 -12 -23 -19 -18 -16 6 2 12 -5 12 -17 2 -17 0 -19 -7 -7 -7 12 -12 12 -22
2 -10 -10 -10 -15 2 -22 12 -8 10 -10 -7 -10 -13 0 -23 -5 -23 -11 0 -5 4 -8
8 -5 5 3 9 -1 9 -9 0 -8 -4 -12 -9 -9 -4 3 -8 1 -8 -5 0 -5 -10 -13 -21 -16
-13 -4 -17 -10 -11 -14 6 -4 10 -15 8 -25 -3 -20 -34 -48 -45 -41 -4 2 -7 -5
-7 -15 0 -10 5 -16 10 -13 5 3 6 1 2 -5 -3 -5 0 -13 6 -16 7 -3 3 -3 -9 -1
-12 3 -25 0 -29 -6 -4 -8 -3 -9 4 -5 18 11 14 -3 -8 -26 -11 -12 -20 -27 -20
-32 0 -6 5 -4 10 4 7 12 9 10 7 -8 -1 -15 -6 -21 -16 -17 -12 5 -12 3 0 -12 8
-9 9 -14 4 -11 -6 4 -16 3 -23 -1 -14 -9 -25 -51 -13 -51 4 0 8 -7 8 -15 0
-11 -4 -12 -14 -3 -7 6 -17 8 -21 4 -4 -4 1 -12 11 -17 9 -6 17 -15 17 -22 0
-8 -3 -7 -9 2 -11 17 -40 8 -37 -12 1 -8 8 -23 16 -33 14 -18 14 -18 -4 -4
-18 14 -19 13 -13 -2 6 -17 -3 -23 -26 -19 -4 1 -3 -8 3 -19 6 -11 16 -17 22
-14 7 4 8 3 4 -5 -4 -6 -12 -9 -17 -6 -16 11 -31 -5 -19 -20 8 -9 6 -17 -5
-29 -9 -9 -20 -16 -25 -16 -12 0 -21 -30 -13 -43 17 -27 11 -39 -10 -21 -12
10 -16 12 -9 4 16 -19 15 -40 -2 -40 -8 0 -18 -5 -22 -12 -5 -7 -2 -9 8 -6 9
4 15 0 15 -8 0 -9 -6 -13 -14 -10 -8 3 -11 1 -8 -4 4 -6 -3 -29 -14 -50 -11
-22 -18 -40 -15 -40 2 0 0 -10 -7 -21 -8 -15 -8 -19 0 -15 14 9 14 0 -2 -24
-10 -17 -9 -22 3 -30 12 -8 12 -10 1 -10 -10 0 -11 -3 -2 -14 9 -11 9 -16 0
-22 -7 -4 -9 -3 -5 4 3 6 2 13 -4 17 -6 4 -8 11 -5 16 4 5 1 9 -5 9 -7 0 -9
-8 -5 -21 6 -16 4 -20 -6 -13 -11 6 -12 5 -2 -7 8 -10 9 -19 1 -29 -8 -12 -8
-11 -3 5 5 15 3 17 -6 8 -6 -6 -8 -17 -3 -24 11 -19 12 -49 2 -55 -4 -3 -6 -9
-3 -14 3 -5 1 -11 -5 -15 -6 -4 -7 -11 -4 -17 4 -7 2 -8 -5 -4 -6 4 -8 12 -5
18 4 6 2 8 -4 5 -5 -4 -9 -15 -8 -25 2 -9 -2 -20 -8 -24 -6 -5 0 -8 14 -8 l25
-1 -25 -10 c-20 -8 -22 -12 -10 -19 14 -9 13 -11 -10 -14 -5 0 -10 -5 -9 -11
0 -5 7 -9 16 -7 13 3 13 1 2 -11 -8 -8 -18 -12 -23 -9 -5 3 -6 0 -2 -6 4 -7 2
-12 -4 -12 -7 0 -10 -6 -7 -14 3 -7 0 -19 -6 -26 -9 -10 -9 -11 1 -6 16 9 16
-6 0 -23 -10 -11 -10 -13 -1 -7 16 9 17 -10 3 -19 -7 -4 -7 -11 -2 -18 15 -20
11 -46 -7 -39 -10 4 -11 7 -3 10 7 2 12 8 12 14 0 6 -9 3 -20 -7 -11 -10 -20
-23 -20 -29 0 -7 3 -7 8 1 5 8 12 8 25 -2 16 -11 16 -13 2 -19 -11 -4 -14 -2
-9 7 6 9 5 9 -7 0 -15 -12 -17 -42 -5 -91 3 -13 1 -20 -5 -17 -5 4 -7 10 -4
15 3 5 2 11 -2 13 -5 3 -8 -10 -9 -29 0 -18 2 -31 6 -29 4 2 7 -2 7 -10 0 -8
-4 -12 -9 -9 -4 3 -8 -4 -8 -16 0 -13 4 -19 12 -14 7 4 8 3 4 -4 -4 -7 -14
-12 -22 -12 -8 0 -13 -4 -9 -10 3 -5 13 -7 23 -4 15 5 15 4 -1 -6 -9 -6 -15
-15 -12 -21 3 -5 -1 -6 -9 -3 -9 3 -16 1 -16 -5 0 -6 8 -11 18 -12 13 0 12 -2
-6 -9 -12 -5 -22 -15 -21 -22 0 -10 2 -10 6 0 2 6 12 12 21 11 11 0 12 -2 5
-6 -7 -2 -13 -17 -13 -31 0 -19 -3 -23 -9 -13 -6 9 -8 4 -7 -18 0 -17 4 -31 9
-31 4 0 5 -6 0 -12 -4 -7 -6 -21 -4 -32 2 -11 -2 -16 -9 -11 -7 4 -5 -7 4 -28
12 -31 12 -35 0 -30 -8 3 -11 10 -7 16 4 6 1 7 -6 2 -9 -5 -7 -13 8 -29 16
-17 18 -23 7 -23 -8 0 -12 5 -9 10 3 6 1 7 -6 3 -9 -6 -9 -11 0 -22 10 -12 8
-13 -7 -9 -17 6 -17 5 1 -7 24 -16 29 -35 10 -35 -8 0 -12 4 -9 8 2 4 -1 11
-7 15 -8 4 -9 3 -5 -4 4 -7 1 -12 -6 -13 -7 0 -3 -5 9 -11 21 -10 21 -11 3
-31 -24 -25 -16 -41 13 -26 21 10 21 9 3 -5 -10 -8 -16 -22 -13 -30 4 -9 1
-18 -5 -22 -7 -5 -8 -2 -3 7 5 8 4 11 0 6 -5 -4 -9 -16 -10 -27 -1 -16 1 -18
14 -7 12 9 11 5 -3 -17 -10 -16 -14 -26 -8 -22 5 3 13 -1 16 -10 3 -8 2 -12
-3 -9 -5 3 -12 1 -16 -5 -3 -5 -1 -10 5 -10 6 0 8 -5 4 -12 -11 -18 -11 -78
-1 -78 5 0 4 -7 -3 -15 -10 -12 -10 -15 0 -15 9 0 9 -4 -1 -17 -11 -13 -11
-17 -1 -21 10 -3 10 -7 1 -19 -10 -12 -10 -16 1 -23 11 -7 11 -11 1 -24 -11
-12 -11 -16 -1 -16 9 0 9 -4 -1 -17 -11 -13 -11 -17 -1 -21 10 -3 10 -7 2 -18
-7 -7 -8 -19 -3 -26 12 -19 11 -82 -2 -90 -6 -5 -5 -8 4 -8 11 0 11 -3 0 -17
-8 -9 -9 -14 -3 -10 7 4 15 0 18 -9 3 -8 2 -12 -3 -9 -5 3 -12 1 -16 -5 -3 -5
-1 -11 4 -11 26 -3 30 -4 35 -11 3 -5 3 -6 -1 -3 -3 3 -13 -1 -21 -8 -13 -10
-14 -9 -7 2 5 9 4 12 -2 8 -8 -5 -10 -56 -3 -64 7 -8 4 -29 -5 -36 -6 -5 -2
-6 9 -3 13 5 17 2 12 -9 -3 -8 -1 -15 3 -15 5 0 12 -7 15 -16 5 -14 4 -15 -8
-5 -11 9 -16 9 -22 0 -4 -7 -3 -9 4 -5 9 5 29 -32 23 -43 -2 -2 3 -8 11 -12 7
-5 8 -9 3 -9 -6 0 -12 -11 -13 -26 -1 -14 2 -23 6 -20 10 6 9 -25 -2 -42 -4
-7 -2 -12 5 -12 8 0 8 -4 -1 -15 -10 -12 -10 -15 0 -15 9 0 9 -4 -1 -17 -8 -9
-9 -14 -3 -10 19 11 25 -21 8 -38 -9 -9 -11 -15 -4 -15 6 0 8 -4 5 -10 -3 -5
-1 -10 4 -10 6 0 11 -5 11 -11 0 -5 -4 -7 -10 -4 -6 3 -7 -1 -4 -9 4 -10 1
-16 -7 -16 -11 0 -11 -3 1 -10 21 -14 33 -12 27 3 -3 8 -1 20 4 28 10 16 2
-79 -9 -96 -3 -5 3 -3 13 5 17 14 18 13 11 -5 -12 -32 -16 -56 -7 -50 5 2 11
-4 14 -15 6 -22 -8 -28 -16 -7 -4 9 -6 9 -6 0 -1 -7 8 -18 19 -25 11 -7 20
-16 20 -21 0 -4 -4 -5 -10 -2 -5 3 -10 2 -10 -3 0 -17 13 -22 29 -9 14 10 14
10 3 -5 -8 -10 -10 -23 -6 -30 12 -20 12 -72 0 -87 -8 -11 -8 -13 1 -7 16 9
16 1 2 -26 -6 -11 -7 -18 -2 -15 5 3 15 2 22 -2 10 -6 9 -12 -4 -25 -15 -15
-10 -21 17 -18 3 1 8 -5 11 -12 4 -10 -1 -12 -16 -9 -22 4 -22 4 1 -9 15 -10
19 -17 12 -24 -7 -7 -2 -19 16 -38 16 -16 21 -24 11 -20 -12 4 -17 1 -17 -10
0 -9 6 -16 14 -16 8 0 18 -5 22 -12 4 -6 3 -8 -3 -5 -6 4 -13 -4 -15 -18 -5
-22 -3 -23 10 -13 10 9 13 9 9 1 -4 -6 -1 -14 5 -16 8 -3 6 -6 -5 -6 -10 -1
-15 -6 -12 -11 4 -6 10 -8 14 -6 4 3 8 -1 8 -9 0 -8 -4 -12 -8 -9 -4 2 -11 -1
-15 -7 -4 -8 -3 -9 4 -5 7 4 12 1 12 -8 0 -9 7 -16 16 -16 8 0 12 -5 9 -10 -4
-6 -10 -8 -14 -6 -4 3 -8 -2 -8 -10 0 -10 4 -11 11 -4 14 14 23 13 23 -5 0 -8
-4 -12 -9 -9 -4 3 -8 0 -8 -5 0 -6 5 -11 11 -11 8 0 7 -6 -2 -17 -10 -11 -10
-14 -1 -9 14 8 12 -19 -3 -44 -8 -13 -7 -13 8 -1 9 7 15 17 12 20 -2 4 1 8 8
8 7 0 12 -10 12 -22 0 -16 -5 -21 -15 -17 -13 5 -13 4 0 -10 8 -9 18 -14 21
-12 3 2 6 -3 6 -11 0 -8 -5 -11 -11 -8 -6 4 -2 -4 9 -17 11 -13 15 -20 8 -17
-6 4 -15 2 -19 -4 -5 -8 -3 -9 6 -4 10 6 12 4 7 -8 -3 -8 0 -20 7 -26 9 -8 13
-7 13 4 0 8 -5 11 -10 8 -6 -3 -7 -1 -3 6 12 18 25 3 20 -24 -3 -20 -1 -23 13
-18 15 5 14 3 -2 -10 -16 -13 -17 -17 -5 -18 8 -1 19 -1 23 0 5 1 6 -3 2 -9
-3 -6 -11 -7 -17 -4 -6 4 -8 2 -4 -4 3 -5 2 -12 -3 -14 -5 -1 3 -12 17 -23 19
-13 23 -14 14 -3 -11 13 -11 18 0 24 7 4 10 4 6 -1 -4 -4 -3 -14 3 -21 7 -8 7
-14 -1 -19 -6 -4 -4 -12 6 -22 15 -15 15 -18 -2 -31 -17 -13 -17 -14 -1 -9 13
5 20 0 27 -19 6 -14 8 -29 5 -34 -3 -5 0 -12 6 -16 8 -5 9 -3 4 6 -5 7 3 5 17
-6 15 -10 22 -21 17 -22 -5 -2 -6 -9 -3 -14 5 -7 2 -8 -7 -3 -11 7 -12 6 -2
-7 7 -8 10 -18 6 -21 -3 -4 -1 -7 6 -7 9 0 9 -5 1 -20 -6 -11 -7 -20 -3 -19
19 3 25 -2 17 -14 -5 -7 -1 -4 8 6 17 18 18 18 11 -13 -5 -26 -3 -31 7 -25 10
6 12 4 7 -8 -3 -9 -2 -19 3 -22 5 -3 7 -14 5 -25 -2 -12 0 -18 4 -15 5 2 14
-9 21 -26 8 -18 18 -28 26 -25 7 3 16 0 20 -6 4 -7 3 -8 -4 -4 -8 5 -12 0 -12
-13 0 -11 5 -23 10 -26 6 -4 8 -10 5 -15 -3 -5 0 -12 6 -15 5 -4 8 -13 6 -20
-4 -8 3 -11 19 -9 19 2 22 -1 15 -15 -6 -10 -4 -25 5 -41 16 -29 19 -19 3 13
-9 20 -9 20 4 5 8 -10 16 -15 19 -12 4 3 6 -1 5 -8 -1 -30 4 -49 11 -44 4 2
14 1 21 -3 10 -6 9 -10 -4 -14 -10 -5 -14 -3 -9 5 4 7 3 8 -4 4 -13 -8 5 -46
21 -46 4 0 6 -4 2 -9 -3 -5 1 -16 9 -24 8 -8 12 -18 8 -22 -4 -5 -1 -5 6 -1
11 6 10 12 -4 27 -10 11 -12 19 -6 19 7 0 12 -5 12 -11 0 -5 4 -8 9 -4 6 3 8
-6 5 -21 -3 -14 -1 -23 4 -20 5 3 9 -1 9 -9 0 -8 -4 -12 -9 -9 -4 3 -8 1 -8
-4 0 -5 9 -12 19 -15 15 -4 18 -1 14 12 -4 9 -3 13 1 9 4 -3 8 -13 10 -21 1
-8 8 -23 16 -33 9 -11 10 -15 3 -10 -7 4 -13 2 -13 -3 0 -6 5 -11 10 -11 6 0
10 -9 10 -20 0 -11 5 -20 11 -20 5 0 8 -4 4 -9 -3 -5 -1 -12 5 -16 6 -4 7 -11
4 -17 -4 -7 -2 -8 4 -4 6 4 20 -2 32 -14 22 -22 26 -40 8 -40 -6 0 -8 -3 -5
-6 4 -4 14 -1 23 7 16 13 16 12 7 -6 -9 -17 -5 -27 23 -60 26 -30 36 -37 43
-27 11 18 20 -3 16 -41 -2 -14 0 -26 3 -26 23 4 39 -4 50 -22 8 -12 9 -18 3
-14 -6 3 -11 2 -11 -3 0 -12 27 -23 33 -14 5 9 1 -8 -8 -33 l-8 -20 17 20 c10
11 14 14 10 6 -5 -10 -3 -13 9 -8 11 4 14 2 10 -8 -3 -8 -8 -13 -12 -10 -4 2
-8 -2 -8 -10 0 -13 3 -13 16 -1 14 12 18 12 31 -2 13 -14 12 -15 -3 -9 -9 3
-19 1 -23 -5 -4 -7 -3 -8 4 -4 7 4 12 1 12 -8 0 -9 8 -16 19 -16 10 0 25 -8
32 -17 10 -11 10 -14 2 -9 -8 4 -13 2 -13 -7 0 -10 8 -14 23 -11 12 2 16 2 10
-2 -10 -4 -9 -9 3 -21 8 -9 13 -22 10 -29 -3 -8 -1 -14 4 -14 5 0 11 8 13 18
4 13 5 12 6 -5 0 -12 6 -25 11 -28 6 -4 7 -11 4 -17 -4 -7 -2 -8 5 -4 6 4 9
12 6 17 -4 5 -2 9 3 9 12 0 26 -30 23 -47 -2 -17 11 -17 29 -1 12 11 12 10 2
-3 -15 -20 1 -65 24 -67 8 -1 21 -3 29 -4 19 -2 19 -3 -1 -23 -16 -15 -16 -16
2 -13 12 2 18 -2 16 -11 -2 -11 0 -12 11 -3 12 10 14 8 12 -12 -2 -19 1 -23
16 -19 13 4 19 0 19 -12 0 -12 5 -15 16 -11 14 5 15 4 5 -8 -11 -13 -9 -15 8
-11 14 2 18 -1 14 -11 -3 -7 -10 -11 -16 -7 -6 3 -7 1 -3 -6 6 -9 11 -9 24 1
12 10 14 10 8 1 -7 -13 2 -16 34 -14 10 0 11 -1 3 -5 -15 -7 -17 -34 -3 -34 6
0 10 -8 11 -17 0 -15 2 -15 9 2 8 19 9 18 9 -4 1 -21 3 -22 18 -10 15 13 15
12 4 -10 -8 -15 -9 -21 -2 -17 6 4 14 1 17 -7 3 -8 15 -17 26 -20 14 -4 19
-11 14 -23 -6 -15 -4 -15 11 -3 11 9 14 10 9 1 -6 -11 4 -16 25 -14 4 1 5 -7
2 -17 -2 -9 4 -24 13 -32 11 -9 15 -9 10 -1 -4 6 -2 12 3 12 6 0 11 -5 11 -11
0 -8 4 -8 14 0 11 9 16 9 22 0 4 -7 3 -9 -3 -6 -6 4 -17 -1 -24 -10 -12 -15
-11 -16 9 -11 15 4 22 2 22 -8 0 -17 16 -18 24 -1 3 6 4 3 1 -8 -2 -11 -1 -25
3 -31 9 -13 45 -27 37 -15 -3 5 -1 12 4 15 17 11 22 -12 6 -27 -13 -13 -13
-16 1 -21 8 -3 13 -2 10 3 -3 5 3 11 15 14 17 5 18 3 7 -11 -11 -14 -10 -15 6
-9 17 7 17 6 5 -10 -12 -15 -12 -16 4 -10 15 6 21 -2 19 -24 -1 -3 6 -6 14 -6
10 0 11 4 4 11 -5 5 -10 15 -10 20 0 18 31 -33 33 -53 1 -12 6 -17 15 -14 10
4 11 8 2 13 -8 5 -7 9 4 13 9 4 15 3 15 -1 -4 -22 2 -32 13 -26 10 6 10 4 0
-8 -15 -19 -3 -31 18 -17 25 15 33 10 28 -16 -3 -14 -1 -28 5 -32 6 -3 7 -1 3
5 -4 7 -2 12 3 12 6 0 11 -7 11 -15 0 -12 4 -13 18 -6 14 7 19 6 19 -4 0 -8
-5 -11 -10 -8 -6 3 -7 1 -3 -6 6 -9 11 -9 22 0 12 10 13 9 8 -6 -6 -14 -4 -16
7 -9 20 12 40 14 33 3 -3 -5 -10 -6 -16 -3 -5 4 -4 -4 2 -17 16 -31 25 -39 16
-15 -5 15 -4 17 7 8 10 -9 17 -8 27 1 10 9 11 9 6 0 -4 -8 -2 -13 6 -13 9 0 9
-3 -2 -10 -8 -5 -13 -10 -10 -11 3 0 14 -2 24 -4 22 -4 37 -25 29 -40 -4 -5 4
-1 17 10 l23 20 -12 -23 c-7 -13 -10 -26 -7 -30 3 -3 6 -1 6 5 0 5 7 10 15 10
18 0 20 -14 3 -20 -7 -3 3 -3 23 -2 25 2 36 -1 36 -11 0 -10 -4 -11 -14 -3 -8
8 -13 8 -13 1 0 -18 24 -20 45 -3 11 8 15 9 8 2 -9 -11 -7 -18 7 -34 10 -11
26 -17 34 -14 8 3 17 -1 20 -9 3 -8 9 -14 13 -13 21 3 33 -2 33 -15 0 -8 9
-18 20 -21 11 -4 18 -10 15 -15 -3 -5 0 -12 6 -16 7 -4 9 -3 5 4 -3 6 -2 13 4
17 6 3 10 -3 10 -15 0 -20 1 -20 16 -5 12 12 19 13 30 4 16 -13 19 -23 4 -14
-5 3 -10 1 -10 -4 0 -6 7 -11 16 -11 8 0 13 -4 10 -8 -3 -5 1 -9 8 -9 8 0 12
7 10 16 -3 9 1 6 7 -7 7 -12 16 -22 20 -22 4 0 15 -7 23 -16 9 -8 16 -11 16
-6 0 5 7 9 15 9 11 0 12 -4 3 -14 -9 -11 -7 -12 7 -7 13 5 16 4 11 -4 -4 -7
-1 -12 9 -12 9 0 13 5 10 10 -3 6 -1 10 5 10 7 0 10 -7 6 -15 -4 -11 2 -14 25
-11 16 2 32 -1 36 -7 3 -6 1 -7 -5 -3 -7 4 -12 2 -12 -5 0 -9 -3 -9 -14 0 -11
9 -16 9 -22 0 -4 -7 -3 -9 4 -5 6 3 13 2 17 -3 3 -6 12 -8 20 -4 9 3 15 -1 15
-11 0 -19 16 -21 26 -4 5 7 3 8 -6 3 -9 -5 -11 -4 -6 4 4 6 12 9 17 5 5 -3 7
-10 4 -15 -4 -5 1 -9 10 -9 10 0 13 5 9 13 -5 8 -2 8 9 -2 9 -7 17 -19 17 -25
0 -6 -5 -4 -11 4 -9 13 -10 13 -6 0 2 -8 12 -13 22 -12 17 3 17 2 4 -14 -12
-15 -10 -15 16 2 16 10 26 13 22 7 -6 -9 -2 -13 12 -13 12 0 21 5 21 12 0 6 3
8 6 5 4 -4 1 -13 -6 -22 -11 -13 -9 -15 14 -15 14 0 26 -6 26 -12 0 -9 4 -8
10 2 8 12 10 12 10 -5 1 -18 2 -18 13 -4 11 15 14 14 31 -10 l20 -26 -22 19
c-12 11 -22 15 -22 10 0 -14 38 -35 45 -25 7 12 29 8 49 -8 8 -7 20 -10 25 -6
7 3 8 0 5 -9 -3 -9 -11 -13 -17 -9 -6 3 -7 1 -3 -6 6 -9 11 -9 22 0 11 9 14 8
14 -2 0 -11 2 -11 10 1 6 10 10 11 10 3 0 -7 12 -13 26 -13 14 0 23 -4 19 -10
-3 -6 -1 -10 5 -10 6 0 9 -4 6 -8 -2 -4 4 -8 14 -8 10 0 16 4 14 8 -9 15 6 8
30 -13 13 -12 26 -19 29 -18 2 2 11 -2 20 -10 10 -7 17 -10 17 -6 0 5 10 0 22
-11 16 -13 19 -14 10 -2 -9 11 -10 18 -2 23 5 3 10 1 10 -4 0 -6 5 -11 11 -11
5 0 7 6 3 12 -4 7 1 5 12 -4 10 -9 22 -16 26 -15 3 1 10 -2 15 -7 4 -5 3 -6
-4 -2 -6 3 -15 1 -19 -6 -4 -7 -4 -10 1 -6 4 4 14 0 22 -10 8 -9 12 -11 8 -5
-3 7 -1 21 5 30 10 17 10 17 8 -1 -2 -10 3 -21 11 -24 8 -3 11 0 7 7 -5 7 -1
9 8 5 9 -3 13 -11 9 -17 -4 -6 -1 -7 8 -2 7 5 25 10 39 11 21 3 22 1 8 -7 -10
-6 -18 -18 -17 -27 0 -14 2 -14 8 3 8 19 8 19 20 0 12 -20 12 -20 7 0 -6 20
-6 20 9 1 10 -14 15 -16 15 -6 0 9 6 6 16 -8 l15 -22 20 22 c12 13 17 17 13 9
-5 -11 -3 -13 11 -7 18 7 18 6 0 -14 -18 -20 -18 -21 0 -14 14 6 16 4 10 -7
-7 -11 -6 -12 7 -2 8 7 18 10 22 6 4 -4 12 -1 17 7 8 12 9 9 5 -10 -5 -24 -4
-24 9 -6 8 11 15 15 15 9 0 -6 7 -14 16 -17 8 -3 12 -2 9 3 -3 5 0 13 6 17 7
4 9 3 6 -3 -4 -6 2 -13 13 -16 11 -3 23 -1 26 4 3 5 10 9 15 9 6 0 -3 -12 -18
-26 -15 -15 -21 -22 -13 -17 22 15 70 22 76 11 3 -4 10 -5 16 -2 7 4 8 2 4 -4
-10 -16 7 -15 23 0 10 11 17 8 35 -15 17 -21 25 -24 34 -15 17 17 39 18 39 2
0 -10 -4 -11 -14 -3 -7 6 -13 7 -13 3 0 -5 9 -15 21 -22 12 -8 19 -10 16 -5
-3 5 -2 15 4 23 7 12 9 11 9 -5 0 -17 2 -17 10 -5 8 13 10 13 10 1 0 -11 3
-12 11 -4 8 8 20 6 45 -7 23 -14 35 -16 40 -8 4 6 3 8 -4 4 -6 -3 -13 -2 -16
2 -3 5 7 8 22 6 15 -1 32 -2 38 -3 6 -1 16 -11 22 -23 11 -21 11 -19 7 12 l-6
35 15 -32 c15 -33 31 -47 20 -18 -5 11 -2 13 12 8 12 -4 15 -3 10 6 -6 9 -3 9
13 -1 12 -7 21 -16 21 -20 0 -5 5 -8 11 -8 5 0 8 4 5 8 -6 11 40 9 50 -1 4 -4
13 -2 19 3 9 7 16 6 24 -4 9 -11 19 -12 36 -6 16 6 27 6 31 -2 5 -7 2 -8 -7
-3 -8 5 -11 5 -7 0 4 -4 2 -15 -4 -24 -9 -11 -5 -10 9 2 13 12 27 16 35 11 10
-6 10 -4 -1 9 -8 10 -11 20 -7 24 3 3 6 1 6 -6 0 -7 6 -11 14 -8 10 4 14 0 11
-13 -2 -13 1 -17 10 -14 8 3 13 11 11 17 -1 7 -1 9 1 5 2 -4 12 -4 21 -1 14 5
14 2 -3 -17 l-20 -23 23 14 c19 12 24 12 31 0 7 -11 9 -11 13 0 4 12 7 12 22
0 14 -12 16 -12 11 0 -4 11 3 14 30 14 19 -1 38 -5 42 -10 5 -4 3 -5 -4 -1 -6
3 -15 1 -19 -6 -4 -7 -4 -10 1 -6 4 4 15 2 23 -5 13 -10 14 -9 8 2 -7 10 -3
12 15 6 l24 -8 -25 22 -25 22 25 -13 c14 -7 28 -17 32 -23 5 -6 8 -5 8 3 0 19
20 14 21 -5 0 -15 2 -15 9 2 5 11 9 14 9 6 1 -9 5 -10 14 -4 14 11 66 11 85 0
7 -5 12 -3 12 5 0 9 3 9 10 -2 9 -13 11 -13 20 0 6 10 10 11 10 3 0 -17 37
-17 43 0 4 9 6 9 6 0 1 -7 8 -13 17 -13 9 0 12 5 8 13 -5 8 -2 8 9 -2 12 -9
17 -10 17 -2 0 7 5 9 10 6 6 -4 8 -11 5 -16 -4 -5 -1 -9 4 -9 6 0 11 7 11 15
0 8 5 15 11 15 6 0 8 -8 5 -18 -5 -14 -4 -14 9 2 9 12 15 15 15 7 0 -11 3 -11
15 -1 9 7 18 10 22 6 3 -3 0 -6 -7 -6 -7 0 -10 -3 -7 -6 4 -4 14 -1 24 7 9 8
14 9 10 2 -4 -6 -2 -15 4 -19 7 -4 9 -3 5 4 -3 6 -2 13 4 17 5 3 10 1 10 -6 0
-8 4 -8 15 1 8 7 12 17 9 24 -3 6 7 -2 22 -19 22 -24 26 -26 20 -8 -4 12 -2
24 4 28 6 4 9 1 8 -6 -2 -6 3 -14 11 -17 9 -3 11 0 6 9 -6 11 -5 11 5 2 7 -6
19 -9 26 -6 8 3 14 0 14 -7 0 -7 6 -5 16 4 8 9 19 14 24 11 5 -3 11 -1 15 5 3
5 11 10 17 10 6 0 5 -7 -3 -17 -12 -16 -12 -17 2 -6 9 7 20 9 24 5 5 -4 5 -1
0 7 -6 11 -2 13 19 9 14 -3 26 -1 26 5 0 6 9 2 20 -8 12 -11 20 -13 20 -6 0 7
4 10 9 6 5 -3 13 0 17 6 5 8 3 9 -6 4 -9 -6 -11 -4 -6 4 6 9 12 8 26 -4 14
-12 20 -13 26 -4 5 8 3 10 -6 4 -9 -5 -11 -4 -6 4 6 9 11 9 24 -1 12 -10 14
-10 8 -1 -4 7 -2 13 3 13 6 0 11 -5 11 -11 0 -14 42 -1 56 17 10 13 12 12 18
-1 4 -11 2 -14 -6 -9 -7 4 -8 3 -4 -5 6 -9 11 -9 21 -1 10 8 14 7 18 -2 3 -7
4 -3 4 10 -1 16 -6 21 -17 17 -12 -5 -12 -4 -3 6 10 10 17 9 32 -8 11 -11 17
-24 13 -29 -4 -4 -1 -4 6 0 10 6 10 11 2 21 -15 18 6 31 25 15 10 -9 14 -7 18
7 4 16 5 16 6 -1 1 -20 1 -20 17 0 8 10 13 13 9 7 -8 -17 7 -17 24 0 9 7 11 7
8 1 -4 -7 0 -14 8 -17 10 -4 12 -1 8 11 -6 15 -5 16 12 2 15 -12 17 -12 10 -1
-6 11 -4 13 7 8 9 -3 21 0 27 6 8 8 14 8 24 -2 10 -10 9 -11 -5 -6 -10 4 -18
3 -18 -3 0 -11 25 -10 36 1 4 3 1 14 -7 24 -11 14 -11 15 0 9 8 -5 17 -3 23 5
6 10 7 6 3 -11 -6 -20 -5 -23 6 -13 7 7 21 13 32 13 10 0 16 4 13 8 -2 4 4 9
15 9 10 1 19 -3 19 -8 0 -6 -5 -7 -12 -3 -7 5 -8 3 -3 -6 6 -10 11 -9 22 5 9
14 13 15 13 4 0 -12 2 -12 10 1 8 13 12 13 32 1 21 -13 22 -13 10 2 -9 10 -10
17 -2 22 5 3 10 0 10 -7 0 -10 2 -11 8 0 5 7 33 14 63 16 59 3 99 18 80 30 -6
4 -11 2 -11 -3 0 -6 -4 -11 -10 -11 -5 0 -10 4 -10 9 0 17 27 19 54 6 15 -8
24 -10 21 -5 -4 6 -1 10 5 10 6 0 9 4 6 8 -3 5 1 9 9 9 8 0 12 -4 9 -8 -8 -13
46 -3 59 11 10 12 9 12 -5 1 -13 -10 -18 -10 -18 -2 0 7 -5 9 -12 5 -8 -4 -10
-3 -5 2 9 9 13 10 43 13 9 0 12 6 8 13 -4 7 -3 8 4 4 6 -4 8 -14 5 -23 -4 -11
-3 -14 5 -9 7 4 12 14 12 22 0 8 5 12 10 9 6 -4 7 -12 3 -18 -5 -8 -2 -8 9 0
8 7 18 10 22 6 4 -4 4 0 0 10 -5 13 -2 16 10 11 9 -3 13 -11 9 -17 -3 -6 -1
-7 6 -3 6 4 8 13 4 19 -11 18 -12 38 -2 31 5 -3 7 -10 4 -15 -10 -15 12 -10
28 6 12 11 17 12 21 2 5 -9 7 -9 12 0 4 8 13 9 29 3 19 -7 23 -6 18 5 -3 8
-10 12 -17 8 -6 -3 -8 -2 -3 2 4 5 16 10 27 12 14 2 18 -2 14 -15 -5 -16 -5
-16 6 1 6 9 8 23 4 30 -5 8 -2 7 9 -2 14 -11 17 -11 17 0 0 10 3 10 8 3 4 -6
15 -10 25 -8 22 3 36 14 19 14 -7 0 -12 5 -12 10 0 7 8 6 23 -1 19 -11 20 -10
9 3 -10 13 -9 15 14 10 21 -4 25 -2 19 9 -6 11 -5 12 6 2 7 -7 18 -13 24 -13
5 0 3 5 -5 11 -11 8 -7 9 18 6 22 -2 29 0 22 7 -5 5 -10 17 -10 25 0 14 2 14
9 2 5 -8 17 -16 25 -17 9 -1 14 2 10 7 -3 5 4 9 15 9 12 0 21 7 21 15 0 8 5
15 11 15 5 0 8 -4 5 -8 -3 -5 1 -9 10 -9 10 0 12 7 8 21 -4 15 -3 17 4 7 8
-11 10 -11 15 0 4 9 6 10 6 2 1 -14 31 -6 31 9 0 5 -5 6 -12 2 -7 -5 -8 -3 -3
5 5 9 10 10 18 2 16 -16 31 -13 18 3 -9 11 -9 16 0 22 8 4 9 3 5 -4 -4 -7 -3
-12 3 -12 5 0 12 6 14 13 4 9 6 8 6 -2 1 -11 4 -11 16 -1 13 11 15 10 10 -6
-4 -11 0 -9 8 6 9 14 13 29 10 34 -4 5 -1 6 6 2 6 -4 8 -13 5 -19 -4 -7 3 -2
15 11 23 24 41 31 22 9 -8 -10 -7 -14 4 -14 7 0 14 3 13 6 -2 21 5 28 27 26
14 -2 23 1 19 6 -3 5 -9 7 -13 5 -4 -3 -8 0 -8 7 0 7 8 13 18 13 10 0 16 -3
14 -6 -2 -4 3 -7 11 -7 8 0 13 6 10 13 -3 7 2 15 10 18 9 4 12 2 8 -5 -4 -7
-1 -10 7 -7 8 3 13 12 11 20 -1 8 4 15 13 15 8 0 12 -4 9 -9 -3 -4 0 -8 5 -8
6 0 11 5 11 10 0 6 9 19 20 30 11 11 20 16 20 10 0 -18 17 -11 29 12 l11 23
-6 -23 c-5 -21 -4 -22 15 -10 12 7 21 16 21 21 0 4 -5 5 -12 1 -7 -4 -8 -3 -4
5 6 9 11 9 21 1 9 -7 16 -6 24 3 6 8 10 16 8 18 -1 2 4 -3 12 -11 11 -13 12
-12 6 8 -6 22 -5 23 17 11 l23 -12 -20 22 c-14 16 -15 22 -5 19 8 -2 18 -7 22
-13 5 -6 8 -5 8 3 0 6 5 12 11 12 5 0 7 -5 3 -12 -4 -7 -3 -8 5 -4 6 4 8 12 5
18 -5 7 -1 9 9 5 9 -3 21 1 29 11 12 15 11 16 -4 3 -12 -9 -18 -10 -18 -2 0
10 6 13 40 15 9 1 15 10 14 24 -1 19 1 20 14 10 11 -9 14 -9 9 -1 -4 6 -3 14
2 17 5 4 13 1 17 -5 4 -8 3 -9 -4 -5 -8 5 -10 1 -5 -10 6 -15 7 -15 16 1 5 9
10 23 11 31 1 8 6 14 10 13 4 0 21 12 37 27 16 15 29 24 29 19 0 -4 -8 -14
-17 -21 -17 -12 -16 -13 4 -11 12 0 19 5 16 10 -3 4 5 11 16 14 19 5 20 7 5
17 -14 10 -12 12 14 10 24 -1 29 2 25 13 -5 11 -1 14 13 9 25 -8 53 8 29 17
-10 5 -14 3 -9 -5 4 -7 3 -8 -5 -4 -6 4 -9 12 -5 17 3 5 9 7 14 4 4 -3 13 2
20 10 7 8 17 12 24 8 17 -11 37 -12 30 -2 -3 5 -10 7 -15 4 -5 -4 -9 -1 -9 4
0 6 5 11 10 11 6 0 9 3 9 8 -3 18 3 21 27 11 23 -8 25 -7 16 4 -16 19 -3 30
16 14 13 -11 14 -9 2 13 -12 22 -12 24 2 12 11 -9 17 -9 20 -2 2 6 12 12 23
14 10 1 21 9 23 17 3 11 2 12 -6 1 -8 -11 -10 -11 -15 1 -4 11 1 14 19 12 13
-1 29 4 35 11 6 8 16 11 22 7 6 -3 7 -1 3 5 -4 6 -14 9 -24 6 -14 -5 -14 -4
-3 4 8 6 21 8 29 4 10 -3 13 -1 8 6 -4 7 -2 20 4 29 11 17 11 17 6 1 -3 -10
-1 -18 4 -18 6 0 10 5 10 11 0 5 5 7 10 4 7 -4 9 3 6 19 -3 18 -1 23 10 19 8
-3 11 -10 7 -16 -3 -6 -1 -7 5 -3 7 4 12 14 12 22 0 12 18 19 42 15 4 0 4 7 1
16 -5 12 -3 14 7 8 10 -6 12 -4 6 10 -6 16 -4 16 11 4 11 -9 14 -10 9 -1 -4 7
-2 12 4 12 6 0 9 4 6 8 -2 4 0 14 6 22 8 12 9 11 4 -3 -4 -12 -2 -17 6 -14 7
2 13 13 12 25 0 14 4 18 14 14 11 -4 13 -1 7 9 -5 8 2 5 16 -6 22 -19 23 -19
9 -1 -14 18 -13 19 3 13 15 -6 17 -3 12 13 -4 14 -2 20 7 18 8 -2 13 6 12 18
0 14 4 20 13 17 7 -3 10 -10 6 -17 -4 -8 -3 -8 6 0 7 6 13 20 14 31 0 13 6 19
14 16 7 -3 13 0 13 6 0 6 -5 11 -12 11 -6 0 -9 3 -6 6 4 3 16 0 28 -6 15 -8
20 -8 16 -1 -4 6 -1 11 6 11 10 0 10 2 -1 9 -17 11 -5 32 14 25 8 -4 18 1 21
10 3 9 10 14 14 11 4 -3 13 9 19 26 7 21 16 29 25 26 10 -4 14 0 11 13 -3 13
1 17 11 13 9 -3 14 1 14 12 0 10 -5 13 -12 9 -7 -4 -8 -3 -4 5 6 9 11 9 24 -1
12 -10 14 -10 8 0 -4 6 -2 12 3 12 6 0 11 5 11 11 0 5 -5 7 -12 3 -7 -5 -8 -3
-3 6 6 10 11 9 23 -6 14 -19 14 -18 8 1 -7 27 26 70 48 62 10 -4 14 -12 10
-18 -5 -8 -3 -9 5 -5 9 6 8 13 -5 27 -16 18 -16 19 1 19 14 0 15 3 6 14 -9 11
-9 16 0 22 8 4 9 3 5 -4 -4 -7 -1 -12 9 -12 9 0 13 5 10 10 -6 10 9 15 30 10
6 -1 4 4 -2 11 -18 18 -16 34 2 19 13 -11 14 -10 9 4 -5 12 -2 15 10 10 9 -3
16 -1 16 5 0 6 -5 11 -11 11 -6 0 -3 7 5 16 9 8 20 24 26 33 6 12 18 17 35 16
14 -2 23 1 19 6 -3 5 -9 7 -13 5 -4 -3 -8 1 -8 9 0 8 2 13 5 10 11 -11 44 18
39 35 -3 13 -1 17 10 13 10 -4 14 0 11 13 -2 12 3 19 12 19 8 0 17 5 18 10 2
6 9 16 15 24 9 11 9 13 0 8 -6 -4 -14 -3 -17 2 -10 15 25 6 36 -10 8 -11 9
-11 5 3 -3 9 1 22 9 29 13 10 13 14 -1 29 -11 12 -13 20 -5 25 6 3 9 1 8 -6
-2 -6 2 -13 9 -16 8 -3 11 3 8 17 -3 17 -1 19 8 11 10 -7 13 -5 14 11 1 12 7
26 14 32 9 8 10 8 5 -1 -3 -6 -2 -14 3 -17 11 -7 9 13 -3 32 -4 7 -4 12 1 11
21 -4 33 2 33 16 0 8 8 15 18 15 9 0 13 4 7 8 -16 12 -15 29 2 44 12 9 15 9 9
1 -4 -8 -2 -13 5 -13 7 0 9 10 7 25 -4 20 -2 23 7 15 20 -17 28 6 9 24 -9 10
-11 16 -4 16 7 0 21 10 31 23 l20 22 -17 -28 c-9 -15 -14 -30 -10 -34 3 -3 6
-1 6 6 0 7 5 9 12 5 7 -4 8 -3 4 5 -4 6 -3 18 4 26 9 10 7 16 -7 25 -17 11
-17 11 1 6 14 -5 17 -2 12 10 -5 14 -4 15 9 4 13 -11 14 -10 9 5 -5 13 -4 16
4 11 7 -4 12 -1 12 9 0 9 4 14 8 11 5 -3 9 1 9 9 0 13 -4 12 -19 -2 -22 -19
-24 -8 -3 14 9 8 22 12 31 9 9 -3 12 -2 9 5 -4 5 -1 17 7 26 8 10 8 14 1 10
-6 -4 -15 -2 -19 4 -5 8 1 10 19 7 15 -3 24 -2 22 3 -3 4 -1 10 4 13 5 4 8 17
7 31 -2 13 5 33 15 43 13 15 15 22 6 32 -10 10 -7 10 10 1 21 -11 22 -10 13
13 -7 20 -6 24 5 19 8 -3 12 -10 8 -16 -3 -6 -1 -7 6 -3 9 6 9 11 0 22 -9 11
-8 14 7 14 16 0 17 2 4 10 -12 8 -12 10 -1 10 11 0 11 3 0 17 -11 13 -11 15
-1 9 9 -5 21 0 35 15 18 19 18 22 4 16 -13 -5 -16 -3 -10 6 4 6 8 20 8 30 0 9
3 17 8 17 4 0 10 0 13 0 4 0 1 -6 -5 -13 -8 -10 -7 -14 3 -14 8 0 13 8 11 19
-2 10 2 18 10 18 8 0 16 4 20 9 3 6 -3 8 -13 6 -11 -2 -19 3 -19 10 0 8 7 11
16 7 14 -5 14 -4 1 13 -9 11 -10 16 -2 11 7 -4 12 -1 12 8 0 15 12 21 33 17 5
-1 6 3 2 9 -3 6 -11 8 -16 5 -14 -9 3 29 20 43 9 8 11 11 5 8 -7 -3 -14 1 -17
9 -4 10 -1 12 11 8 15 -6 16 -5 2 12 -10 12 -10 16 -2 11 14 -8 42 10 42 27 0
6 -7 2 -16 -9 -14 -16 -14 -15 0 9 9 15 14 33 10 39 -5 7 0 9 14 6 12 -4 25
-1 29 4 3 6 2 8 -3 5 -5 -3 -20 2 -32 12 -21 16 -22 17 -3 17 11 0 17 -4 14
-9 -3 -5 0 -8 7 -5 7 2 14 12 16 21 1 11 -2 14 -9 10 -7 -4 -6 1 2 10 11 14
11 20 1 32 -16 20 -6 19 14 -1 9 -8 16 -11 16 -5 0 5 -5 13 -10 16 -6 4 -8 11
-4 16 4 6 10 6 18 0 9 -8 13 -7 13 4 0 8 -4 15 -9 15 -4 0 -8 5 -8 11 0 5 6 7
13 3 9 -6 9 -4 -1 8 -10 13 -10 18 -1 24 7 4 9 3 6 -3 -3 -5 0 -10 8 -10 13 0
13 3 0 23 -8 13 -11 25 -6 29 6 3 14 -2 19 -11 6 -11 11 -13 16 -5 4 6 2 11
-3 11 -6 0 -11 7 -11 16 0 9 -5 12 -12 8 -7 -4 -8 -3 -4 5 6 9 12 9 24 -1 10
-7 14 -8 10 -4 -4 5 -3 15 4 23 9 11 7 12 -8 7 -18 -7 -18 -6 -3 12 20 23 42
64 35 64 -3 0 -12 -12 -19 -26 -9 -17 -17 -23 -21 -15 -4 6 -2 11 4 11 7 0 9
7 6 16 -3 8 -2 12 4 9 6 -3 10 -1 10 4 0 6 8 11 18 11 14 0 15 2 2 10 -12 8
-12 10 -1 10 10 0 11 3 2 14 -9 11 -9 16 0 22 7 4 9 3 6 -3 -3 -5 1 -10 9 -10
9 0 11 4 5 10 -5 5 -7 17 -3 26 5 14 4 15 -14 1 -18 -14 -18 -14 -5 3 8 10 21
15 29 12 13 -5 13 -3 1 12 -12 15 -12 16 5 10 16 -6 17 -5 6 8 -10 12 -10 15
1 15 12 0 12 2 1 9 -11 7 -11 9 2 14 9 4 13 13 10 21 -3 8 -1 17 5 20 6 4 7
14 4 23 -5 13 -2 15 11 10 11 -4 15 -3 11 4 -4 6 -13 8 -21 5 -8 -3 -14 -1
-14 4 0 6 10 10 23 11 12 0 16 3 9 6 -10 4 -10 8 -1 19 6 8 7 14 2 14 -5 0
-10 7 -10 15 0 11 4 12 13 4 10 -8 12 -6 9 10 -2 12 -7 26 -11 33 -5 7 -2 9 9
5 9 -3 21 1 29 11 12 15 11 16 -4 4 -11 -9 -18 -10 -23 -2 -3 5 -1 10 4 10 6
0 11 4 11 10 0 5 -6 8 -12 6 -7 -1 -10 -1 -5 1 4 3 5 8 2 13 -3 4 3 14 13 21
15 13 16 12 3 -3 -9 -12 -10 -18 -2 -18 6 0 11 3 12 8 0 4 2 15 4 25 2 9 0 15
-4 12 -4 -2 -8 3 -8 11 0 8 6 13 12 10 13 -5 12 34 -1 55 -5 8 -3 9 6 4 10 -6
12 -4 7 9 -4 10 -3 15 3 11 6 -3 11 1 11 9 3 29 4 34 12 42 4 4 0 16 -9 25
-16 17 -16 19 0 25 12 5 14 10 6 19 -8 10 -7 16 7 24 17 10 17 10 1 11 -10 0
-18 5 -18 11 0 6 6 9 13 6 10 -4 14 3 13 21 -1 15 2 32 6 38 5 6 2 17 -7 24
-8 7 -15 17 -15 23 0 6 6 2 14 -9 13 -16 17 -17 28 -5 7 8 8 11 2 8 -7 -4 -15
0 -18 9 -4 11 -2 15 7 11 8 -3 14 1 14 10 0 9 -7 13 -18 10 -16 -4 -17 -2 -8
14 5 10 12 19 15 19 3 0 2 -6 -2 -12 -5 -10 -3 -10 7 0 12 11 12 14 -1 22 -12
8 -12 10 -1 10 11 0 11 3 0 17 -12 14 -12 16 2 11 20 -8 19 23 -2 48 -13 16
-12 17 5 11 14 -6 16 -4 9 5 -11 16 -11 27 4 53 16 30 16 35 -4 52 -10 8 -12
12 -5 8 6 -3 12 -1 12 5 0 6 4 9 9 5 5 -3 13 0 17 6 4 8 3 9 -4 5 -7 -4 -12
-1 -12 9 0 9 4 14 8 11 5 -3 9 1 9 9 0 8 -4 12 -8 10 -3 -3 -9 4 -12 14 -4 15
0 19 14 16 11 -2 17 0 14 6 -4 5 -11 7 -16 4 -5 -4 -9 3 -9 15 0 12 4 19 8 16
13 -8 8 42 -6 56 -9 9 -8 16 5 30 14 16 15 22 4 40 -7 11 -8 17 -2 13 6 -3 11
-2 11 4 0 5 -6 11 -12 14 -10 4 -10 7 -1 18 15 16 17 33 3 24 -5 -3 -10 -1
-10 4 0 6 5 11 10 11 6 0 10 5 10 11 0 5 -4 8 -9 4 -9 -5 -9 2 -1 40 1 6 1 12
0 15 -1 3 -3 19 -4 37 -2 27 0 30 13 20 11 -9 11 -4 -3 17 -10 16 -13 25 -7
22 6 -4 11 0 11 9 0 10 -5 14 -12 9 -10 -6 -10 -4 0 7 17 18 15 27 -5 32 -16
4 -16 5 1 6 16 1 17 3 5 18 -8 10 -9 14 -2 10 13 -8 11 23 -3 45 -4 7 -3 8 4
4 16 -10 15 7 0 23 -11 10 -9 11 7 6 18 -6 19 -6 2 5 -14 9 -16 15 -6 26 9 11
8 14 -2 15 -8 0 -5 4 6 9 19 8 19 9 -2 9 -12 1 -25 5 -28 11 -4 6 1 7 11 3 13
-5 15 -3 9 7 -6 10 -4 12 9 7 10 -4 15 -3 11 3 -3 6 -12 10 -20 10 -14 0 -15
24 0 37 4 4 5 3 1 -4 -3 -6 -2 -14 3 -17 13 -8 8 14 -8 39 -7 12 -10 13 -8 4
3 -9 -1 -16 -8 -16 -10 0 -11 5 -5 16 5 10 4 24 -2 35 -6 10 -7 16 -2 14 5 -3
18 -2 29 3 18 7 18 8 -5 8 -20 1 -22 3 -10 11 12 8 12 10 -5 11 l-20 0 20 9
c14 6 16 9 5 10 -8 2 -19 2 -23 1 -5 -1 -6 3 -2 9 3 6 10 8 15 5 4 -3 6 4 3
15 -3 11 -10 20 -17 20 -6 0 -4 5 4 10 8 5 12 10 8 10 -4 0 -3 11 2 25 8 20 7
23 -8 19 -14 -5 -13 -3 2 10 17 14 18 16 3 16 -22 0 -22 9 1 26 16 13 16 14
-2 7 -13 -4 -17 -3 -13 4 4 6 1 14 -5 16 -8 3 -6 6 5 6 9 1 17 6 17 12 0 6
-10 8 -22 5 -13 -3 -17 -3 -10 0 10 5 10 9 1 20 -9 11 -8 18 3 32 16 18 13 47
-3 36 -5 -3 -10 0 -10 5 -3 26 -4 30 -12 37 -4 4 1 16 10 26 16 18 16 18 0 12
-13 -5 -16 -2 -11 10 3 9 11 13 18 10 6 -3 2 2 -8 10 -15 12 -16 16 -5 16 12
0 12 2 0 9 -8 5 -16 17 -17 25 -1 9 2 14 6 11 5 -3 12 0 16 6 4 8 3 9 -4 5 -7
-4 -12 -2 -12 4 0 6 -5 8 -12 4 -7 -5 -8 -3 -3 7 13 20 13 49 2 56 -6 4 -7 1
-2 -8 8 -12 6 -12 -8 0 -15 12 -15 31 -1 31 3 0 2 -5 -2 -12 -5 -7 -3 -8 5 -4
9 6 8 13 -6 29 -10 11 -13 17 -6 14 6 -4 15 -2 19 4 4 7 3 9 -2 6 -6 -3 -16
-2 -24 4 -12 7 -12 9 3 9 10 0 16 4 12 10 -3 5 -13 6 -22 3 -17 -7 -17 -6 4
45 3 7 -4 12 -18 12 -19 0 -21 2 -9 9 8 6 18 7 22 5 4 -3 5 2 2 10 -3 9 -10
16 -16 16 -5 0 -6 -6 -2 -12 4 -7 3 -10 -1 -6 -5 5 -10 20 -11 34 -3 25 -2 25
12 8 14 -18 14 -18 7 1 -3 11 -11 23 -17 27 -7 5 -6 8 3 8 11 0 10 4 -5 16
-10 8 -14 13 -7 10 6 -4 15 -2 18 4 4 6 3 10 -2 9 -18 -3 -36 1 -30 8 4 3 2
12 -4 20 -8 9 -8 13 -1 13 6 0 9 7 6 15 -4 8 -11 12 -18 8 -7 -4 -6 -1 2 9 10
12 10 17 -1 27 -8 6 -17 9 -20 6 -4 -3 -5 -2 -2 2 3 3 0 12 -7 20 -6 7 -8 16
-4 20 3 3 6 2 6 -4 0 -6 12 -19 28 -28 l27 -18 -25 29 c-14 16 -32 35 -40 43
-13 12 -13 13 1 8 9 -3 16 0 16 8 0 7 -7 11 -15 7 -12 -4 -13 -1 -5 13 8 13 6
22 -9 37 -13 13 -18 29 -15 45 3 19 -1 26 -19 33 -30 12 -31 20 -1 13 20 -4
20 -3 4 7 -17 11 -17 14 -3 35 10 15 12 26 6 30 -6 4 -9 1 -8 -6 2 -7 -6 -14
-17 -16 -12 -3 -16 -1 -9 4 14 10 9 46 -6 51 -7 3 -7 9 2 20 11 14 10 15 -6 9
-14 -6 -17 -4 -12 9 5 12 2 15 -9 10 -9 -3 -14 -2 -10 3 3 5 2 11 -2 14 -5 2
-3 2 4 1 7 -2 10 3 6 11 -3 8 -10 12 -17 8 -8 -5 -8 -3 1 8 9 11 8 18 -3 33
-9 13 -14 15 -14 6 0 -7 -3 -10 -6 -7 -4 4 -1 14 7 24 12 15 12 16 -3 10 -20
-7 -33 7 -21 26 11 18 13 38 2 31 -5 -3 -6 -10 -3 -16 4 -7 2 -8 -4 -4 -6 4
-8 14 -5 23 5 12 3 14 -8 8 -12 -7 -12 -6 -1 7 9 12 10 18 2 23 -8 5 -7 11 1
21 10 12 8 16 -9 21 -21 5 -26 14 -23 39 1 6 -5 17 -13 23 -8 7 -12 19 -9 27
3 8 0 14 -7 14 -6 0 -8 -4 -5 -10 3 -5 1 -10 -5 -10 -6 0 -8 10 -4 26 5 21 4
25 -6 19 -10 -6 -12 -4 -7 8 3 9 1 19 -5 23 -6 4 -8 3 -5 -3 3 -5 0 -10 -7
-10 -19 0 -8 25 12 30 15 4 14 5 -1 6 -12 1 -16 5 -11 14 5 7 0 6 -11 -3 -16
-14 -17 -13 -11 8 6 18 4 21 -10 15 -14 -5 -15 -3 -5 15 9 16 8 23 -2 29 -12
7 -29 37 -31 55 -1 3 -5 10 -10 15 -5 4 -6 3 -2 -4 3 -6 2 -14 -3 -17 -15 -10
-6 25 10 35 10 7 6 8 -12 4 -19 -5 -28 -2 -33 11 -5 14 -4 15 8 5 11 -9 16 -9
22 1 4 7 4 10 -1 6 -12 -11 -37 21 -37 48 0 20 -3 22 -14 13 -8 -7 -17 -9 -21
-5 -3 3 0 6 8 6 11 0 11 2 -1 10 -8 5 -10 10 -4 10 6 0 11 7 11 15 0 11 -4 12
-11 5 -17 -17 -24 -11 -22 19 1 17 -2 27 -7 24 -6 -4 -7 5 -3 23 7 28 7 28 -8
9 -15 -20 -15 -20 -11 2 2 12 -4 27 -13 35 -15 12 -16 11 -3 -4 7 -10 9 -18 3
-18 -14 0 -22 26 -11 37 6 6 1 17 -12 29 -13 10 -19 13 -15 7 4 -7 3 -13 -2
-13 -18 0 -21 29 -4 33 16 4 15 5 0 6 -10 0 -18 6 -18 12 0 5 -6 7 -12 3 -10
-6 -10 -4 0 8 10 13 10 17 -3 22 -11 4 -14 2 -9 -6 4 -7 3 -8 -5 -4 -9 6 -9
11 0 22 6 8 9 17 5 21 -3 3 -6 0 -6 -8 0 -12 -2 -12 -9 0 -5 8 -7 21 -4 30 4
11 1 10 -9 -3 -12 -15 -17 -16 -23 -6 -5 9 -4 11 3 6 18 -11 14 4 -6 22 -9 10
-13 14 -8 10 6 -5 14 -8 20 -8 5 0 2 6 -9 13 -12 9 -15 19 -10 28 7 12 6 12
-7 1 -11 -9 -18 -10 -23 -2 -3 5 -1 10 4 10 6 0 11 5 11 10 0 7 -8 6 -22 -1
-21 -11 -22 -11 -9 4 11 15 11 17 -2 17 -9 0 -19 5 -23 12 -4 6 -3 8 2 5 5 -3
10 3 10 13 0 13 -4 16 -12 9 -8 -7 -14 -2 -18 17 -5 19 -10 23 -20 15 -10 -8
-12 -4 -9 22 3 26 1 28 -6 12 -5 -11 -10 -14 -10 -8 -1 18 -32 52 -45 49 -6
-2 -8 -1 -3 1 11 7 9 31 -3 35 -6 2 -12 13 -13 25 0 12 -5 21 -10 20 -5 -1
-11 6 -12 16 -5 26 -11 31 -19 12 -4 -11 -2 -14 7 -9 8 5 7 2 -2 -9 -17 -22
-19 -21 -17 6 1 14 -4 21 -13 19 -11 -2 -12 0 -3 11 16 19 -8 43 -26 25 -8 -8
-9 -5 -5 11 3 13 -1 29 -11 40 -9 10 -13 21 -9 26 5 4 3 5 -4 2 -14 -9 -46 21
-39 38 3 8 -4 10 -19 8 -20 -4 -22 -1 -19 24 4 24 3 25 -5 8 -8 -17 -10 -18
-10 -2 -1 9 -5 17 -11 17 -5 0 -10 7 -10 15 0 8 -5 15 -11 15 -5 0 -7 4 -4 10
3 6 -1 7 -9 4 -11 -4 -16 0 -16 10 0 13 -16 20 -41 18 -3 -1 -6 6 -6 13 0 10
4 12 12 5 8 -7 12 -5 12 5 0 8 -4 12 -8 9 -10 -6 -41 25 -35 35 3 4 -1 8 -9 9
-8 1 -22 3 -30 4 -11 1 -12 5 -3 15 9 11 7 12 -7 7 -13 -5 -16 -4 -11 4 4 7 2
12 -4 12 -6 0 -8 5 -3 13 4 6 -6 3 -22 -7 l-30 -19 20 22 c12 14 14 21 6 19
-7 -2 -16 3 -19 11 -3 8 0 11 7 7 6 -4 11 -2 11 3 0 14 -6 14 -33 -1 -19 -10
-21 -9 -9 4 10 13 10 18 1 24 -8 4 -9 3 -5 -4 4 -7 3 -12 -2 -12 -11 0 -25 38
-22 60 1 11 -2 10 -13 -4 -13 -17 -14 -17 -20 -2 -5 11 -3 15 5 10 7 -4 8 -3
4 5 -6 9 -11 9 -24 -1 -12 -10 -14 -10 -8 0 4 7 2 12 -4 12 -6 0 -8 5 -4 12 5
8 2 9 -11 4 -16 -6 -16 -4 -4 10 12 15 11 16 -11 9 -23 -7 -24 -7 -10 10 9 11
10 16 3 11 -8 -4 -13 -2 -13 4 0 6 -4 8 -10 5 -5 -3 -10 -1 -10 5 0 6 -4 9 -8
6 -5 -3 -16 4 -25 14 -9 11 -25 17 -37 15 -17 -3 -19 -1 -10 16 9 16 7 19 -15
19 -15 0 -24 4 -20 10 3 6 1 10 -4 10 -6 0 -11 5 -11 11 0 5 6 7 13 4 6 -4 1
2 -12 13 -14 11 -31 17 -39 14 -11 -4 -13 1 -7 19 3 13 3 20 -2 14 -15 -19
-43 -14 -43 7 0 17 -2 18 -16 8 -12 -11 -15 -11 -12 1 2 8 -3 13 -12 11 -12
-2 -12 0 2 11 14 12 13 14 -12 29 -18 10 -32 12 -43 6 -13 -7 -15 -5 -10 8 4
12 3 15 -5 10 -7 -4 -12 -1 -12 7 0 8 -7 18 -16 21 -26 10 -29 7 -8 -10 18
-15 18 -15 -3 -4 -12 5 -25 15 -29 22 -4 7 -3 8 4 4 7 -4 12 -2 12 3 0 11 -21
15 -49 12 -7 -2 -10 2 -6 8 3 6 3 11 -2 11 -4 0 -21 11 -37 25 -16 13 -32 22
-37 20 -4 -3 -14 3 -21 13 -7 11 -17 21 -23 23 -5 2 -9 9 -7 16 1 7 -6 9 -19
6 -14 -4 -25 0 -31 11 -5 9 -14 13 -21 9 -7 -4 -5 2 3 13 8 10 10 16 5 11 -4
-4 -18 1 -29 10 -20 17 -20 17 -7 0 12 -15 12 -17 -3 -11 -9 3 -16 14 -16 23
0 14 -2 14 -10 1 -8 -13 -10 -12 -10 3 0 10 -4 15 -10 12 -5 -3 -10 -1 -10 6
0 8 -4 8 -15 -1 -9 -7 -18 -10 -22 -6 -3 3 0 6 8 6 10 1 9 4 -4 11 -9 6 -14
15 -11 21 5 7 1 9 -9 5 -22 -8 -49 2 -40 16 4 7 0 8 -11 4 -13 -5 -17 -3 -13
7 4 11 1 13 -10 9 -12 -5 -14 -3 -8 8 8 12 6 12 -8 0 -14 -11 -17 -11 -18 0
-1 8 -1 18 0 23 1 5 -5 4 -13 -4 -19 -15 -21 0 -3 19 10 11 8 11 -10 2 -15 -8
-23 -8 -23 -1 0 5 -4 9 -9 8 -4 -2 -18 8 -30 22 -13 14 -20 20 -17 14 3 -7 0
-14 -8 -17 -19 -8 -28 3 -15 19 8 9 5 11 -10 7 -12 -3 -18 -10 -14 -17 4 -6
-1 -5 -10 3 -9 7 -17 20 -17 28 0 8 -4 12 -9 9 -5 -3 -11 4 -14 15 -3 12 -10
18 -15 15 -5 -3 -15 1 -22 9 -11 14 -15 14 -31 -1 -17 -15 -18 -15 -14 5 4 20
3 20 -23 5 -20 -12 -22 -12 -9 -1 22 18 22 22 -3 24 -11 1 -18 -2 -15 -7 4 -6
-2 -7 -11 -3 -11 4 -13 8 -6 11 7 2 10 8 6 13 -3 5 -13 5 -25 -1 -23 -13 -40
-5 -32 15 4 11 -1 14 -18 11 -16 -2 -30 4 -42 18 -16 20 -17 20 -11 1 4 -14 3
-16 -3 -7 -6 7 -19 14 -31 15 -11 0 -19 5 -16 9 3 4 12 5 22 2 14 -5 14 -4 3
4 -8 6 -20 8 -28 5 -7 -3 -13 0 -13 6 0 6 -5 11 -11 11 -5 0 -7 -4 -4 -10 3
-5 1 -10 -4 -10 -6 0 -11 5 -11 10 0 6 -5 10 -11 10 -5 0 -7 -6 -4 -12 4 -7
-3 -2 -15 12 -13 14 -31 24 -41 22 -14 -2 -19 3 -20 20 l0 23 -10 -24 c-7 -18
-12 -21 -23 -12 -7 6 -16 7 -20 3 -4 -4 -6 0 -4 8 2 8 7 18 12 21 4 4 3 10 -3
13 -6 4 -11 2 -11 -3 0 -6 -11 -10 -25 -9 -14 1 -25 6 -25 11 0 4 -6 5 -12 0
-19 -11 -38 -12 -38 -2 0 6 -4 8 -9 5 -5 -3 -16 6 -26 20 -9 14 -19 23 -23 19
-4 -3 0 -11 8 -16 11 -8 8 -8 -10 -3 -14 4 -27 11 -28 15 -2 5 -9 6 -15 2 -18
-11 -38 -12 -31 -2 3 5 10 6 16 3 7 -4 8 -2 4 4 -4 6 -14 8 -23 5 -11 -4 -14
-3 -9 5 4 7 1 12 -9 12 -9 0 -13 -4 -10 -10 3 -5 1 -10 -4 -10 -6 0 -11 10
-12 23 l0 22 -9 -22 c-5 -13 -12 -23 -14 -23 -3 0 -2 7 1 17 4 11 3 14 -5 9
-7 -4 -12 -3 -12 2 0 6 -7 13 -16 16 -13 5 -14 4 -6 -7 9 -11 8 -13 -6 -12 -9
1 -25 5 -34 9 -9 4 -22 5 -27 1 -7 -3 -8 0 -5 10 6 14 9 14 30 0 13 -8 24 -12
24 -7 0 5 -15 16 -34 24 -25 12 -36 14 -45 5 -8 -8 -11 -8 -11 1 0 9 -5 10
-19 2 -25 -13 -31 -13 -31 1 0 5 6 7 13 3 8 -5 7 -2 -2 10 -8 9 -20 15 -26 12
-7 -2 -17 0 -22 5 -12 12 -45 0 -36 -14 4 -6 1 -7 -6 -3 -7 5 -10 10 -7 14 3
3 -2 11 -12 18 -14 10 -20 10 -36 -4 -18 -16 -18 -16 -12 8 6 19 5 21 -3 10
-6 -8 -11 -11 -11 -7 0 4 -9 3 -19 -3 -14 -7 -22 -7 -27 2 -5 7 -3 8 7 3 11
-7 12 -6 2 7 -7 8 -10 18 -6 21 3 4 1 7 -5 7 -7 0 -12 -4 -12 -8 0 -13 -34
-11 -43 2 -6 7 -7 4 -3 -6 3 -10 0 -20 -6 -24 -7 -4 -8 -3 -4 4 4 7 2 12 -4
12 -6 0 -8 5 -4 13 5 8 2 8 -9 -2 -9 -7 -17 -9 -17 -4 0 13 -53 12 -62 -1 -5
-8 -8 -7 -9 2 -3 27 -4 31 -12 39 -5 4 -8 4 -7 -2 5 -22 -1 -45 -11 -45 -5 0
-7 5 -3 12 5 7 2 9 -8 5 -12 -4 -15 0 -11 16 5 22 5 22 -11 2 -13 -17 -17 -18
-25 -5 -6 8 -15 16 -21 16 -5 1 -11 2 -12 4 -9 6 -76 5 -72 -2 3 -5 11 -5 17
-1 7 4 6 0 -2 -10 -15 -18 -26 -23 -16 -7 3 6 -1 10 -10 10 -9 0 -14 4 -11 8
2 4 -4 8 -14 8 -10 0 -16 -4 -14 -8 3 -4 1 -8 -5 -8 -5 0 -12 6 -14 13 -4 8
-8 9 -14 1 -12 -16 -45 -14 -39 3 3 8 1 11 -5 8 -5 -4 -15 -3 -22 2 -7 5 -19
9 -27 8 -8 -1 -24 3 -35 8 -16 8 -18 7 -8 -3 7 -7 24 -14 39 -14 15 -1 30 -8
32 -15 3 -10 0 -11 -16 -2 -10 6 -22 8 -25 5 -3 -3 -14 -1 -26 5 -16 9 -22 8
-29 -5 -6 -11 -11 -13 -16 -5 -4 6 -3 11 2 11 6 0 13 8 17 18 5 14 4 15 -6 5
-19 -19 -34 -16 -18 4 13 15 12 15 -8 3 -18 -11 -24 -12 -37 -1 -9 8 -16 9
-16 4 0 -5 -17 -10 -37 -11 -21 -1 -46 -2 -56 -2 -9 -1 -15 -5 -12 -10 3 -5
-9 -1 -27 8 -37 18 -83 29 -58 13 8 -5 17 -8 20 -6 4 2 7 -2 7 -10 0 -11 -4
-12 -14 -4 -7 6 -19 9 -27 6 -11 -4 -13 -1 -9 11 6 15 5 15 -10 3 -11 -9 -17
-10 -17 -2 0 6 -5 11 -11 11 -5 0 -7 -4 -4 -10 3 -5 -1 -10 -10 -10 -9 0 -14
4 -11 8 4 7 -89 8 -104 2 -3 -1 -13 -1 -24 0 -12 1 -16 -3 -11 -10 6 -9 2 -9
-12 -2 -10 6 -25 7 -32 3 -14 -9 -63 -2 -57 8 3 4 -4 7 -14 7 -18 0 -18 -1 -2
-20 16 -20 16 -20 0 -7 -10 7 -25 11 -33 7 -9 -3 -13 -2 -10 4 3 6 1 10 -4 10
-6 0 -11 -5 -11 -12 0 -6 -7 -3 -15 8 -15 19 -15 19 -8 -1 7 -20 7 -20 -21 -1
-16 10 -26 14 -22 8z m7 -35 c-10 -9 -11 -8 -5 6 3 10 9 15 12 12 3 -3 0 -11
-7 -18z m603 7 c3 -8 2 -12 -4 -9 -6 3 -10 10 -10 16 0 14 7 11 14 -7z m66 7
c0 -6 -4 -12 -8 -15 -5 -3 -9 1 -9 9 0 8 4 15 9 15 4 0 8 -4 8 -9z m378 -46
c-3 -3 -9 2 -12 12 -6 14 -5 15 5 6 7 -7 10 -15 7 -18z m-24 7 c3 -5 -1 -9 -9
-9 -8 0 -12 4 -9 9 3 4 7 8 9 8 2 0 6 -4 9 -8z m-1620 -37 c-4 -8 -8 -15 -10
-15 -2 0 -4 7 -4 15 0 8 4 15 10 15 5 0 7 -7 4 -15z m1929 -12 c-3 -7 -6 -13
-8 -13 -2 0 -5 6 -8 13 -3 8 1 14 8 14 7 0 11 -6 8 -14z m-1976 -9 c-3 -3 -12
-4 -19 -1 -8 3 -5 6 6 6 11 1 17 -2 13 -5z m2088 -4 c3 -5 1 -10 -4 -10 -6 0
-11 5 -11 10 0 6 2 10 4 10 3 0 8 -4 11 -10z m-2255 -15 c-7 -9 -15 -13 -19
-10 -3 3 1 10 9 15 21 14 24 12 10 -5z m2325 -5 c3 -5 11 -8 18 -6 7 1 9 1 4
-1 -4 -3 -4 -10 0 -16 3 -7 -3 -4 -14 6 -11 9 -23 14 -26 10 -4 -3 -7 -1 -7 5
0 14 16 16 25 2z m-3087 -240 c-7 -11 -14 -16 -16 -10 -2 6 -9 7 -14 4 -7 -4
-8 -2 -4 5 4 6 11 9 16 6 5 -3 11 -1 15 5 3 5 8 10 11 10 2 0 -1 -9 -8 -20z
m4102 -115 c7 -9 8 -15 2 -15 -5 0 -12 7 -16 15 -3 8 -4 15 -2 15 2 0 9 -7 16
-15z m27 -27 c-3 -8 -6 -5 -6 6 -1 11 2 17 5 13 3 -3 4 -12 1 -19z m-4500 -25
c-4 -3 -1 -13 6 -22 11 -14 10 -14 -5 -2 -16 12 -16 31 -1 31 4 0 3 -3 0 -7z
m4626 -38 c4 -8 3 -16 -1 -19 -4 -3 -9 4 -9 15 -2 23 3 25 10 4z m-4773 -55
c0 -5 -4 -10 -10 -10 -5 0 -10 5 -10 10 0 6 5 10 10 10 6 0 10 -4 10 -10z
m-525 -329 c3 -5 2 -12 -3 -15 -5 -3 -9 1 -9 9 0 17 3 19 12 6z m-35 -35 c0
-2 -7 -7 -16 -10 -8 -3 -12 -2 -9 4 6 10 25 14 25 6z m6039 -23 c2 -1 -6 -1
-18 0 -11 1 -21 8 -21 15 0 12 3 12 18 1 9 -7 19 -14 21 -16z m121 -104 c0 -5
-4 -9 -10 -9 -5 0 -10 7 -10 16 0 8 5 12 10 9 6 -3 10 -10 10 -16z m-6419 -66
c13 -16 12 -17 -3 -4 -10 7 -18 15 -18 17 0 8 8 3 21 -13z m6843 -311 c3 -5
-1 -9 -9 -9 -8 0 -12 4 -9 9 3 4 7 8 9 8 2 0 6 -4 9 -8z m16 -32 c0 -5 -2 -10
-4 -10 -3 0 -8 5 -11 10 -3 6 -1 10 4 10 6 0 11 -4 11 -10z m-7409 -197 c-1
-4 -7 -8 -13 -8 -7 0 -12 -9 -10 -20 2 -16 1 -17 -7 -5 -7 10 -5 20 6 32 16
18 26 18 24 1z m7638 -52 c0 -10 -4 -7 -10 7 -5 13 -13 21 -17 18 -5 -3 -9 1
-9 9 0 13 4 12 19 -2 10 -9 18 -23 17 -32z m96 -111 c3 -5 1 -10 -4 -10 -6 0
-11 5 -11 10 0 6 2 10 4 10 3 0 8 -4 11 -10z m-7890 -20 c3 -5 -1 -10 -10 -10
-9 0 -13 5 -10 10 3 6 8 10 10 10 2 0 7 -4 10 -10z m-75 -90 c0 -5 -5 -10 -11
-10 -5 0 -7 5 -4 10 3 6 8 10 11 10 2 0 4 -4 4 -10z m-13 -52 c-3 -8 -6 -5 -6
6 -1 11 2 17 5 13 3 -3 4 -12 1 -19z m8317 -296 c3 -5 -1 -9 -9 -9 -8 0 -12 4
-9 9 3 4 7 8 9 8 2 0 6 -4 9 -8z m301 -563 c11 -16 1 -19 -13 -3 -7 8 -8 14
-3 14 5 0 13 -5 16 -11z m-9178 -54 c0 -8 -4 -12 -9 -9 -5 3 -6 10 -3 15 9 13
12 11 12 -6z m9223 -9 c0 -11 -19 -15 -25 -6 -3 5 1 10 9 10 9 0 16 -2 16 -4z
m-6 -34 c3 -5 -1 -9 -9 -9 -8 0 -15 4 -15 9 0 4 4 8 9 8 6 0 12 -4 15 -8z
m-9254 -41 c0 -6 -4 -12 -8 -15 -5 -3 -9 1 -9 9 0 8 4 15 9 15 4 0 8 -4 8 -9z
m-88 -203 c-7 -7 -12 -8 -12 -2 0 14 12 26 19 19 2 -3 -1 -11 -7 -17z m9458
-32 c0 -3 -4 -8 -10 -11 -5 -3 -10 -1 -10 4 0 6 5 11 10 11 6 0 10 -2 10 -4z
m-9504 -135 c0 -11 -5 -17 -13 -14 -10 4 -11 9 -2 19 15 18 15 18 15 -5z m-16
-30 c0 -6 -4 -12 -8 -15 -5 -3 -9 1 -9 9 0 8 4 15 9 15 4 0 8 -4 8 -9z m-120
-442 c0 -5 -4 -9 -8 -9 -5 0 -9 7 -9 15 0 8 4 12 9 9 4 -3 8 -9 8 -15z m9844
-127 c3 -5 -1 -9 -9 -9 -8 0 -12 4 -9 9 3 4 7 8 9 8 2 0 6 -4 9 -8z m-9883
-49 c13 -16 12 -17 -3 -4 -17 13 -22 21 -14 21 2 0 10 -8 17 -17z m9936 -189
c-3 -3 -12 -4 -19 -1 -8 3 -5 6 6 6 11 1 17 -2 13 -5z m-10017 -408 c0 -2 -8
-10 -17 -17 -16 -13 -17 -12 -4 4 13 16 21 21 21 13z m0 -210 c0 -2 -8 -10
-17 -17 -16 -13 -17 -12 -4 4 13 16 21 21 21 13z m-2 -498 c-2 -6 -10 -13 -16
-14 -9 -2 -9 -1 -1 3 8 4 7 8 -2 14 -11 7 -10 9 4 9 10 0 17 -5 15 -12z m2
-38 c0 -5 -5 -10 -11 -10 -5 0 -7 5 -4 10 3 6 8 10 11 10 2 0 4 -4 4 -10z
m10055 -20 c3 -5 1 -10 -4 -10 -6 0 -11 5 -11 10 0 6 2 10 4 10 3 0 8 -4 11
-10z m-16 -84 c9 -11 9 -16 -1 -22 -7 -4 -10 -4 -6 1 4 4 3 14 -3 22 -6 7 -9
13 -6 13 2 0 10 -6 16 -14z m-10002 -233 c-4 -3 -1 -13 6 -22 11 -14 10 -14
-5 -2 -16 12 -16 31 -1 31 4 0 3 -3 0 -7z m9938 -273 c3 -6 -1 -7 -9 -4 -18 7
-21 14 -7 14 6 0 13 -4 16 -10z m-9835 -204 c0 -2 -7 -7 -16 -10 -8 -3 -12 -2
-9 4 6 10 25 14 25 6z m9745 -187 c-4 -5 -12 -9 -18 -8 -9 0 -8 2 1 6 6 2 9
10 6 15 -4 7 -2 8 5 4 6 -4 9 -12 6 -17z m-9390 -837 c-3 -3 2 -16 10 -29 22
-33 10 -29 -14 5 -16 22 -17 29 -5 29 7 0 12 -3 9 -5z m69 -148 c5 -14 4 -15
-9 -4 -17 14 -19 20 -6 20 5 0 12 -7 15 -16z m8857 -137 c-13 -13 -26 -3 -16
12 3 6 11 8 17 5 6 -4 6 -10 -1 -17z m-8636 -216 c3 -5 2 -12 -3 -15 -5 -3 -9
1 -9 9 0 17 3 19 12 6z m19 -57 c5 -14 4 -15 -9 -4 -17 14 -19 20 -6 20 5 0
12 -7 15 -16z m8394 -69 c-3 -3 -9 2 -12 12 -6 14 -5 15 5 6 7 -7 10 -15 7
-18z m-8324 -41 c3 -9 11 -12 18 -8 7 4 10 4 6 -1 -4 -4 -2 -17 4 -29 6 -11 6
-16 2 -11 -47 53 -56 65 -47 65 6 0 14 -7 17 -16z m8241 -93 c-9 -8 -36 -10
-30 -2 2 4 11 8 20 8 8 0 13 -3 10 -6z m-110 -131 c-3 -5 -12 -10 -18 -10 -7
0 -6 4 3 10 19 12 23 12 15 0z m-7725 -270 c0 -5 -5 -10 -11 -10 -5 0 -7 5 -4
10 3 6 8 10 11 10 2 0 4 -4 4 -10z m480 -466 c0 -8 -19 -13 -24 -6 -3 5 1 9 9
9 8 0 15 -2 15 -3z m1553 -897 c4 3 7 1 7 -6 0 -7 4 -10 8 -7 5 3 9 -1 9 -9 0
-10 -4 -12 -12 -5 -7 5 -14 8 -16 5 -3 -2 -11 6 -18 18 -13 19 -12 21 1 10 8
-7 18 -10 21 -6z m322 -117 c3 -5 1 -10 -4 -10 -6 0 -11 5 -11 10 0 6 2 10 4
10 3 0 8 -4 11 -10z m85 -18 c0 -5 -7 -9 -15 -9 -8 0 -12 4 -9 9 3 4 9 8 15 8
5 0 9 -4 9 -8z m2594 -10 c3 -5 -1 -9 -9 -9 -8 0 -12 4 -9 9 3 4 7 8 9 8 2 0
6 -4 9 -8z m-2311 -62 c-3 -12 -8 -19 -11 -16 -5 6 5 36 12 36 2 0 2 -9 -1
-20z m1717 -50 c0 -5 -2 -10 -4 -10 -3 0 -8 5 -11 10 -3 6 -1 10 4 10 6 0 11
-4 11 -10z m-275 -20 c3 -5 1 -10 -4 -10 -6 0 -11 5 -11 10 0 6 2 10 4 10 3 0
8 -4 11 -10z m130 0 c3 -5 1 -10 -4 -10 -6 0 -11 5 -11 10 0 6 2 10 4 10 3 0
8 -4 11 -10z m-922 -21 c-8 -8 -13 -7 -18 2 -5 8 -4 10 3 5 7 -4 12 -2 12 5 0
7 3 9 7 6 4 -4 2 -12 -4 -18z m762 3 c-3 -3 -15 -6 -27 -7 -20 -2 -20 -1 -3
11 17 13 43 9 30 -4z"/>
<path d="M4910 10129 c0 -5 5 -7 10 -4 6 3 10 8 10 11 0 2 -4 4 -10 4 -5 0
-10 -5 -10 -11z"/>
<path d="M5270 10129 c0 -5 5 -7 10 -4 6 3 10 8 10 11 0 2 -4 4 -10 4 -5 0
-10 -5 -10 -11z"/>
<path d="M4036 10035 c4 -8 8 -15 10 -15 2 0 4 7 4 15 0 8 -4 15 -10 15 -5 0
-7 -7 -4 -15z"/>
<path d="M3554 9904 c-18 -14 -18 -15 4 -4 12 6 22 13 22 15 0 8 -5 6 -26 -11z"/>
<path d="M3460 9864 c0 -8 5 -12 10 -9 6 4 8 11 5 16 -9 14 -15 11 -15 -7z"/>
<path d="M6670 9872 c0 -5 7 -9 15 -9 8 0 12 4 9 9 -3 4 -9 8 -15 8 -5 0 -9
-4 -9 -8z"/>
<path d="M6815 9831 c-3 -5 -2 -12 3 -15 5 -3 9 1 9 9 0 17 -3 19 -12 6z"/>
<path d="M7066 9732 c-3 -5 1 -9 9 -9 8 0 12 4 9 9 -3 4 -7 8 -9 8 -2 0 -6 -4
-9 -8z"/>
<path d="M7340 9589 c0 -5 5 -7 10 -4 6 3 10 8 10 11 0 2 -4 4 -10 4 -5 0 -10
-5 -10 -11z"/>
<path d="M7786 9347 c3 -10 9 -15 12 -12 3 3 0 11 -7 18 -10 9 -11 8 -5 -6z"/>
<path d="M7864 9289 c1 -7 13 -14 27 -16 18 -2 20 -1 9 6 -8 5 -17 8 -21 5 -4
-2 -10 1 -12 6 -3 6 -4 5 -3 -1z"/>
<path d="M7926 9248 c3 -5 10 -6 15 -3 13 9 11 12 -6 12 -8 0 -12 -4 -9 -9z"/>
<path d="M2120 9201 c0 -6 4 -13 10 -16 6 -3 7 1 4 9 -7 18 -14 21 -14 7z"/>
<path d="M8325 8940 c-3 -6 1 -7 9 -4 18 7 21 14 7 14 -6 0 -13 -4 -16 -10z"/>
<path d="M1280 8440 c-9 -6 -10 -10 -3 -10 6 0 15 5 18 10 8 12 4 12 -15 0z"/>
<path d="M9060 8175 c0 -2 6 -8 13 -14 10 -8 14 -7 14 2 0 8 -6 14 -14 14 -7
0 -13 -1 -13 -2z"/>
<path d="M760 7719 c0 -5 5 -7 10 -4 6 3 10 8 10 11 0 2 -4 4 -10 4 -5 0 -10
-5 -10 -11z"/>
<path d="M660 7570 c-8 -5 -10 -10 -5 -10 6 0 17 5 25 10 8 5 11 10 5 10 -5 0
-17 -5 -25 -10z"/>
<path d="M9550 7450 c0 -5 5 -10 11 -10 5 0 7 5 4 10 -3 6 -8 10 -11 10 -2 0
-4 -4 -4 -10z"/>
<path d="M564 7382 c3 -5 0 -13 -6 -15 -9 -4 -10 -6 -1 -6 17 -1 25 16 12 25
-7 4 -9 3 -5 -4z"/>
<path d="M202 6465 c4 -4 3 -14 -3 -21 -7 -9 -6 -14 3 -20 7 -4 10 -4 6 1 -4
4 -3 14 3 21 7 9 6 14 -3 20 -7 4 -10 4 -6 -1z"/>
<path d="M9985 6240 c-3 -6 1 -7 9 -4 18 7 21 14 7 14 -6 0 -13 -4 -16 -10z"/>
<path d="M10049 5927 c6 -8 7 -18 3 -22 -4 -5 -1 -5 6 -1 10 6 10 11 1 22 -6
8 -14 14 -16 14 -3 0 0 -6 6 -13z"/>
<path d="M10070 5840 c-12 -7 -12 -12 -2 -22 6 -6 12 -10 13 -7 0 2 2 12 4 22
4 20 4 19 -15 7z"/>
<path d="M10093 5645 c0 -8 4 -12 9 -9 5 3 6 10 3 15 -9 13 -12 11 -12 -6z"/>
<path d="M10100 5508 c0 -4 4 -8 9 -8 6 0 12 4 15 8 3 5 -1 9 -9 9 -8 0 -15
-4 -15 -9z"/>
<path d="M10122 4841 c-11 -7 -11 -9 0 -14 9 -3 15 1 15 9 0 8 -1 14 -1 14 -1
0 -7 -4 -14 -9z"/>
<path d="M10030 4156 c0 -2 7 -7 16 -10 8 -3 12 -2 9 4 -6 10 -25 14 -25 6z"/>
<path d="M104 4062 c0 -10 8 -18 17 -18 13 0 14 4 5 18 -6 10 -13 18 -16 18
-3 0 -6 -8 -6 -18z"/>
<path d="M116 4022 c-3 -5 1 -9 9 -9 8 0 12 4 9 9 -3 4 -7 8 -9 8 -2 0 -6 -4
-9 -8z"/>
<path d="M125 3990 c-3 -5 -1 -10 4 -10 6 0 11 5 11 10 0 6 -2 10 -4 10 -3 0
-8 -4 -11 -10z"/>
<path d="M173 3775 c0 -8 4 -12 9 -9 5 3 6 10 3 15 -9 13 -12 11 -12 -6z"/>
<path d="M425 3070 c-3 -5 1 -10 10 -10 9 0 13 5 10 10 -3 6 -8 10 -10 10 -2
0 -7 -4 -10 -10z"/>
<path d="M9499 2643 c-12 -16 -12 -17 2 -6 9 7 20 9 24 5 5 -4 5 -1 1 6 -9 16
-11 15 -27 -5z"/>
<path d="M770 2410 c0 -5 5 -10 11 -10 5 0 7 5 4 10 -3 6 -8 10 -11 10 -2 0
-4 -4 -4 -10z"/>
<path d="M860 2271 c0 -6 4 -13 10 -16 6 -3 7 1 4 9 -7 18 -14 21 -14 7z"/>
<path d="M970 2131 c0 -7 -5 -9 -12 -5 -7 5 -8 3 -3 -5 5 -9 10 -10 18 -2 6 6
8 14 4 18 -4 3 -7 1 -7 -6z"/>
<path d="M1010 2060 c0 -5 5 -10 11 -10 5 0 7 5 4 10 -3 6 -8 10 -11 10 -2 0
-4 -4 -4 -10z"/>
<path d="M8992 1895 c-17 -37 -14 -45 4 -12 9 16 14 31 11 33 -2 2 -9 -7 -15
-21z"/>
<path d="M1250 1770 c0 -5 5 -10 11 -10 5 0 7 5 4 10 -3 6 -8 10 -11 10 -2 0
-4 -4 -4 -10z"/>
<path d="M8831 1707 c-13 -21 -12 -21 5 -5 10 10 16 20 13 22 -3 3 -11 -5 -18
-17z"/>
<path d="M8087 1029 c7 -7 15 -10 18 -7 3 3 -2 9 -12 12 -14 6 -15 5 -6 -5z"/>
<path d="M8035 990 c-3 -5 -1 -10 4 -10 6 0 11 5 11 10 0 6 -2 10 -4 10 -3 0
-8 -4 -11 -10z"/>
<path d="M7870 870 c0 -5 5 -10 11 -10 5 0 7 5 4 10 -3 6 -8 10 -11 10 -2 0
-4 -4 -4 -10z"/>
<path d="M2429 752 c-13 -15 -12 -16 3 -4 13 10 17 10 21 0 4 -9 6 -9 6 -1 2
20 -16 24 -30 5z"/>
<path d="M7491 646 c-8 -10 -9 -16 -1 -21 5 -3 10 -5 11 -3 4 18 7 38 4 38 -1
0 -8 -6 -14 -14z"/>
<path d="M3106 419 c3 -5 9 -7 14 -4 4 3 11 0 13 -5 3 -6 4 -5 3 1 -1 7 -10
13 -19 15 -9 1 -15 -2 -11 -7z"/>
<path d="M3930 150 c0 -5 5 -10 11 -10 5 0 7 5 4 10 -3 6 -8 10 -11 10 -2 0
-4 -4 -4 -10z"/>
<path d="M3990 146 c0 -2 7 -9 15 -16 13 -11 14 -10 9 4 -5 14 -24 23 -24 12z"/>
<path d="M4271 74 c0 -11 3 -14 6 -6 3 7 2 16 -1 19 -3 4 -6 -2 -5 -13z"/>
<path d="M4356 72 c-3 -5 1 -9 9 -9 8 0 12 4 9 9 -3 4 -7 8 -9 8 -2 0 -6 -4
-9 -8z"/>
<path d="M4755 30 c-3 -5 -1 -10 4 -10 6 0 11 5 11 10 0 6 -2 10 -4 10 -3 0
-8 -4 -11 -10z"/>
<path d="M5555 30 c-3 -5 -1 -10 4 -10 6 0 11 5 11 10 0 6 -2 10 -4 10 -3 0
-8 -4 -11 -10z"/>
<path d="M4950 26 c0 -2 7 -7 16 -10 8 -3 12 -2 9 4 -6 10 -25 14 -25 6z"/>
</g>
</svg>
